<svg xmlns="http://www.w3.org/2000/svg" width="15.527" height="15.54" viewBox="0 0 15.527 15.54">
  <g id="ic_body" transform="translate(-190 -562.802)">
    <path id="Trazado_682" data-name="Trazado 682" d="M-549.445-214.709c.049-.333.084-.67.15-1a7.657,7.657,0,0,1,2.7-4.494.444.444,0,0,0,.128-.144h-.7c-.106,0-.212,0-.319,0a.324.324,0,0,1-.336-.317.326.326,0,0,1,.346-.325c.187,0,.374,0,.561,0,.435,0,.87,0,1.3,0a.333.333,0,0,1,.38.369q.005.925,0,1.851a.325.325,0,0,1-.319.365.326.326,0,0,1-.331-.369c0-.373,0-.747,0-1.164-.19.154-.359.279-.514.419a7,7,0,0,0-2.352,4.535,6.9,6.9,0,0,0,.288,2.934c.035.11.066.223.091.336.045.21-.018.325-.2.377a.31.31,0,0,1-.4-.2,10.018,10.018,0,0,1-.283-.973c-.075-.344-.109-.7-.162-1.047a.6.6,0,0,0-.025-.085Z" transform="translate(739.445 784.765)" fill="#00065a"/>
    <path id="Trazado_683" data-name="Trazado 683" d="M-425.038-244.923c.274.039.55.07.823.118a7.652,7.652,0,0,1,4.024,2.035c.029.028.058.056.088.083.006.006.018.006.04.013,0-.046.009-.088.01-.13,0-.268,0-.536,0-.8a.324.324,0,0,1,.328-.343.328.328,0,0,1,.321.336c0,.025,0,.051,0,.076q0,.88,0,1.76c0,.3-.111.413-.411.414-.607,0-1.214,0-1.821,0a.319.319,0,0,1-.339-.427.319.319,0,0,1,.331-.216h1.252l.028-.051c-.337-.285-.658-.593-1.015-.852a7,7,0,0,0-4.815-1.337,6.611,6.611,0,0,0-1.655.354c-.048.017-.1.033-.144.047a.325.325,0,0,1-.407-.2.315.315,0,0,1,.2-.415c.366-.113.734-.226,1.108-.308.334-.074.676-.106,1.015-.157Z" transform="translate(623.324 807.725)" fill="#00065a"/>
    <path id="Trazado_684" data-name="Trazado 684" d="M-489.6-209.766a1.963,1.963,0,0,1,.145-2.73,1.952,1.952,0,0,1,2.578-.039,1.969,1.969,0,0,1,.192,2.768h.174c1.057,0,2.114,0,3.171,0a.978.978,0,0,1,1.02.914.959.959,0,0,1-.948,1.024c-.7.01-1.4,0-2.094,0-.442,0-.515.072-.515.507q0,3.11,0,6.221a.987.987,0,0,1-.684,1,.964.964,0,0,1-1.256-.929c-.008-.926,0-1.851,0-2.777a1.186,1.186,0,0,0-.006-.166.314.314,0,0,0-.317-.288.316.316,0,0,0-.325.3,1.33,1.33,0,0,0,0,.167c0,.936.01,1.872-.006,2.807a.959.959,0,0,1-1.44.807.972.972,0,0,1-.5-.91q0-2.026,0-4.051,0-1.123,0-2.246c0-.334-.1-.437-.432-.438-.622,0-1.244.007-1.866,0a.9.9,0,0,1-.858-.593.925.925,0,0,1,.182-1.029.985.985,0,0,1,.776-.316q1.411,0,2.822,0Zm1.623.653h-3.641c-.344,0-.688,0-1.032,0a.323.323,0,0,0-.313.174.324.324,0,0,0,.323.471c.612,0,1.224,0,1.836,0a1.287,1.287,0,0,1,.226.014.976.976,0,0,1,.816,1.031q0,3.118,0,6.235c0,.061,0,.122,0,.182a.32.32,0,0,0,.315.306.325.325,0,0,0,.325-.3c.005-.05,0-.1,0-.152q0-1.381,0-2.761a.94.94,0,0,1,.517-.881.965.965,0,0,1,1.423.859c.006.93,0,1.861,0,2.791a1.293,1.293,0,0,0,0,.152.325.325,0,0,0,.332.29.318.318,0,0,0,.306-.3c.005-.06,0-.121,0-.182q0-3.125,0-6.25a.974.974,0,0,1,1.035-1.037h2.078c.3,0,.453-.115.449-.329s-.155-.316-.445-.316Zm-.179-.654a1.294,1.294,0,0,0,1.307-1.277,1.3,1.3,0,0,0-1.277-1.309,1.3,1.3,0,0,0-1.316,1.286A1.3,1.3,0,0,0-488.154-209.767Z" transform="translate(685.912 777.098)" fill="#00065a"/>
    <path id="Trazado_685" data-name="Trazado 685" d="M-268.87-115.05h.436c.212,0,.425,0,.637,0a.318.318,0,0,1,.317.32.323.323,0,0,1-.32.32c-.131.006-.263,0-.394,0h-1.487a.34.34,0,0,1-.391-.389q0-.91,0-1.821c0-.234.127-.375.325-.375s.324.14.326.374c0,.324,0,.647,0,.971v.182c.121-.093.217-.162.308-.238a7.006,7.006,0,0,0,2.557-4.715,6.874,6.874,0,0,0-.29-2.934c-.035-.11-.066-.223-.091-.336-.043-.2.018-.315.191-.369a.313.313,0,0,1,.414.2,8.883,8.883,0,0,1,.31,1.107,7.652,7.652,0,0,1-2.74,7.589C-268.789-115.13-268.815-115.1-268.87-115.05Z" transform="translate(471.401 691.775)" fill="#00065a"/>
    <path id="Trazado_686" data-name="Trazado 686" d="M-508.663,51.189a7,7,0,0,0,2.577,1.763,7.029,7.029,0,0,0,4.995.1c.287-.1.521.062.484.333a.332.332,0,0,1-.252.273,7.564,7.564,0,0,1-1.843.414,7.7,7.7,0,0,1-4.382-.861,7.555,7.555,0,0,1-1.74-1.256c-.036-.034-.073-.067-.127-.116-.005.062-.012.1-.012.146,0,.273,0,.546,0,.819a.321.321,0,0,1-.324.331.319.319,0,0,1-.322-.333q-.008-.963,0-1.926a.311.311,0,0,1,.342-.325q.948,0,1.9,0a.323.323,0,0,1,.35.318.329.329,0,0,1-.362.325c-.364,0-.728,0-1.092,0Z" transform="translate(701.232 524.238)" fill="#00065a"/>
  </g>
</svg>
