<svg xmlns="http://www.w3.org/2000/svg" width="12.891" height="15.908" viewBox="0 0 12.891 15.908">
  <g id="ic_body" transform="translate(-191.739 -678.782)">
    <path id="Trazado_689" data-name="Trazado 689" d="M1052.524-117.647c.273.162.294.338.08.576a2.71,2.71,0,0,0-.6,1.46,3.738,3.738,0,0,0,.437,2.36c.364.694.734,1.385,1.079,2.088a6.219,6.219,0,0,1,.644,2.184,7.112,7.112,0,0,1-.124,1.855,23.651,23.651,0,0,1-1.452,4.86c-.091.224-.165.273-.4.273q-4.327,0-8.654,0a.37.37,0,0,1-.4-.264c-.2-.549-.41-1.1-.61-1.645a.313.313,0,0,1,.165-.444c.182-.062.335.032.415.253.167.459.337.917.5,1.376a.139.139,0,0,0,.151.112c1.234,0,2.467,0,3.7,0,.025,0,.049,0,.083-.006,0-.046.009-.085.009-.124,0-.657,0-1.315,0-1.972,0-.105-.023-.149-.138-.165a2.055,2.055,0,0,1-1-.434q-2.051-1.582-4.107-3.158c-.044-.034-.089-.065-.176-.129.024.3.032.559.07.815.063.428.144.853.219,1.279a.309.309,0,0,1-.221.38.3.3,0,0,1-.372-.23,10.011,10.011,0,0,1-.289-2.4,5.759,5.759,0,0,1,.614-2.315c.356-.737.75-1.457,1.119-2.188a3.82,3.82,0,0,0,.454-1.337,3.651,3.651,0,0,0-.32-2.039,2.169,2.169,0,0,0-.288-.429c-.215-.252-.211-.386.047-.588Zm-8.63.617c.019.042.03.069.043.1a4.222,4.222,0,0,1,.361,2.632,5.747,5.747,0,0,1-.667,1.7c-.19.364-.386.726-.581,1.093.043.032.078.061.115.087a6.661,6.661,0,0,0,2.226.933,10.788,10.788,0,0,0,3.765.206,8.171,8.171,0,0,0,2.792-.787c.248-.125.482-.277.726-.419-.041-.081-.068-.135-.1-.189q-.355-.676-.711-1.351a4.247,4.247,0,0,1-.377-3.124c.075-.3.2-.582.3-.874Zm9.052,6.086a9.164,9.164,0,0,1-5.1,1.339,9.161,9.161,0,0,1-5.083-1.339,6.29,6.29,0,0,0-.537,1.559.189.189,0,0,0,.073.144q2.275,1.754,4.556,3.5a1.491,1.491,0,0,0,1.8-.015q.814-.622,1.624-1.247,1.539-1.182,3.076-2.367a.217.217,0,0,0,.087-.163A6.151,6.151,0,0,0,1052.946-110.944Zm.615,2.2c-.064.047-.1.076-.144.106-1.467,1.126-2.929,2.257-4.4,3.373a2.9,2.9,0,0,1-.719.354c-.111.042-.137.085-.136.19,0,.652,0,1.3,0,1.956v.151c.044,0,.069.009.094.009q1.85,0,3.7,0a.139.139,0,0,0,.152-.109,23.4,23.4,0,0,0,1.321-4.486A7.017,7.017,0,0,0,1053.561-108.741Z" transform="translate(-849.673 796.554)" fill="#00065a" stroke="#00065a" stroke-width="0.25"/>
    <path id="Trazado_690" data-name="Trazado 690" d="M1061.028,278.574a.3.3,0,0,1-.306-.3.307.307,0,0,1,.309-.312.313.313,0,0,1,.3.307A.3.3,0,0,1,1061.028,278.574Z" transform="translate(-868.272 413.059)" fill="#00065a" stroke="#00065a" stroke-width="0.25"/>
    <path id="Trazado_691" data-name="Trazado 691" d="M1238.364,29.027c0,.153,0,.306,0,.458a.3.3,0,1,1-.605.007q-.013-.465,0-.931a.3.3,0,0,1,.315-.3.306.306,0,0,1,.291.313c0,.01,0,.02,0,.031v.428Z" transform="translate(-1039.878 655.12)" fill="#00065a" stroke="#00065a" stroke-width="0.25"/>
  </g>
</svg>
