<svg xmlns="http://www.w3.org/2000/svg" width="15.232" height="13.718" viewBox="0 0 15.232 13.718">
  <g id="ic_respiratory" transform="translate(-190.829 -623.187)">
    <path id="Trazado_688" data-name="Trazado 688" d="M284.077-326.506c.05-.281.081-.568.153-.843a4.444,4.444,0,0,1,2.645-3.16,3.858,3.858,0,0,1,4.334.9c.167.168.32.348.479.521.2-.211.391-.434.605-.63a3.83,3.83,0,0,1,2.994-1.092,4.132,4.132,0,0,1,3.076,1.756,4.886,4.886,0,0,1,.9,3.628,7.662,7.662,0,0,1-1.746,3.845,15.249,15.249,0,0,1-3.668,3.249c-.608.4-1.244.755-1.866,1.133a.533.533,0,0,1-.586,0,22.466,22.466,0,0,1-3.652-2.466,11.554,11.554,0,0,1-2.914-3.512,6.541,6.541,0,0,1-.729-2.431.636.636,0,0,0-.025-.1Zm5.7,3.455c.038-.071.068-.122.094-.174q.691-1.382,1.379-2.765a.482.482,0,0,1,.438-.325.476.476,0,0,1,.442.319c.239.489.487.974.726,1.464a.2.2,0,0,0,.216.131q1.458-.007,2.915,0a.45.45,0,0,1,.491.445.456.456,0,0,1-.492.446c-1.1,0-2.191,0-3.287,0a.482.482,0,0,1-.474-.293c-.146-.3-.3-.6-.451-.9-.023-.046-.05-.09-.085-.151-.037.069-.063.116-.087.163q-.691,1.382-1.38,2.764a.484.484,0,0,1-.45.329.485.485,0,0,1-.435-.328c-.443-.9-.893-1.79-1.34-2.685-.039-.079-.081-.157-.131-.253-.181.362-.357.705-.524,1.053a.5.5,0,0,1-.5.305c-.218,0-.436,0-.654,0h-.52c.028.055.042.086.058.115a9.658,9.658,0,0,0,1.775,2.315,18.955,18.955,0,0,0,4.116,2.983.22.22,0,0,0,.183-.022c.678-.42,1.367-.823,2.024-1.274a13.028,13.028,0,0,0,3.166-2.965A6.432,6.432,0,0,0,298.4-326a3.807,3.807,0,0,0-1.321-3.135,3.041,3.041,0,0,0-3.435-.452,4.029,4.029,0,0,0-1.528,1.484c-.243.383-.59.374-.85,0a6.407,6.407,0,0,0-.7-.88,2.931,2.931,0,0,0-2.707-.9,3.349,3.349,0,0,0-2.485,1.973,4.434,4.434,0,0,0-.1,3.416.182.182,0,0,0,.142.08c.367.007.734,0,1.1.006a.18.18,0,0,0,.191-.122c.246-.5.5-1,.748-1.5a.467.467,0,0,1,.385-.288.463.463,0,0,1,.472.314Z" transform="translate(-93.248 954.012)" fill="#00065a"/>
  </g>
</svg>
