<svg xmlns="http://www.w3.org/2000/svg" width="12.166" height="15.642" viewBox="0 0 12.166 15.642">
  <g id="ic_height" transform="translate(-193.313 -504.794)">
    <path id="Trazado_680" data-name="Trazado 680" d="M276.311-788.723q0-3.63,0-7.26c0-.337.057-.394.393-.394h4.11c.31,0,.378.068.378.378q0,7.277,0,14.554c0,.309-.068.377-.38.377h-4.127c-.31,0-.374-.065-.374-.378Q276.311-785.085,276.311-788.723Zm.5,3.944v1.369h1.937c.052,0,.1,0,.157,0a.226.226,0,0,1,.229.237.228.228,0,0,1-.226.241,1.6,1.6,0,0,1-.174.006h-1.92v1.354H280.7v-14.31h-3.882v1.349c.676,0,1.337,0,2,0,.2,0,.318.09.321.242s-.113.244-.314.245c-.6,0-1.207,0-1.811,0h-.2v1.369h.2c.308,0,.615,0,.923,0,.181,0,.28.091.281.238s-.1.242-.276.245c-.273.006-.546,0-.818,0h-.307v1.359c.065,0,.121.008.178.008h1.149c.25,0,.5,0,.749,0a.232.232,0,0,1,.246.221.242.242,0,0,1-.227.26,1.1,1.1,0,0,1-.156,0h-1.937v1.363h.18c.319,0,.639,0,.958,0a.234.234,0,0,1,.261.239.238.238,0,0,1-.258.245c-.191.006-.383,0-.575,0h-.562v1.362h.205c.6,0,1.207,0,1.811,0,.193,0,.312.106.3.259s-.118.227-.3.228c-.615,0-1.231,0-1.846,0h-.181v1.364h.231c.3,0,.592,0,.888,0,.178,0,.279.1.281.242s-.1.237-.275.243c-.064,0-.128,0-.192,0Z" transform="translate(-82.873 1301.379)" fill="#00065a" stroke="#00065a" stroke-width="0.25"/>
    <path id="Trazado_681" data-name="Trazado 681" d="M411.534-786.324v.232q0,2.3,0,4.6c0,.324-.065.391-.383.391h-2.926c-.307,0-.376-.07-.376-.382q0-2.307,0-4.614v-.214c-.1-.005-.176-.005-.255-.015a.922.922,0,0,1-.828-.973c.031-.538.093-1.075.146-1.611.1-1.01.22-2.019.293-3.031a.979.979,0,0,1,1.046-.967,1.041,1.041,0,0,0,.118-.007,2.017,2.017,0,0,1-.629-1.895,1.905,1.905,0,0,1,.694-1.153,1.984,1.984,0,0,1,2.587.064,1.942,1.942,0,0,1,.658,1.48A2.042,2.042,0,0,1,411-792.91c.118,0,.191,0,.264,0a.919.919,0,0,1,.893.82c.112,1.085.213,2.17.319,3.256.041.421.088.842.122,1.264a1.887,1.887,0,0,1,0,.518.919.919,0,0,1-.867.727C411.671-786.321,411.613-786.324,411.534-786.324Zm-.488,4.724v-.229q0-2.281,0-4.562c0-.052,0-.1,0-.157a.241.241,0,0,1,.259-.262c.127-.006.256,0,.383,0a.442.442,0,0,0,.443-.478c0-.058,0-.116-.009-.174q-.222-2.26-.445-4.52a.437.437,0,0,0-.466-.438q-1.524,0-3.047,0a.438.438,0,0,0-.458.428q-.225,2.277-.447,4.554c-.044.45.129.634.584.628l.122,0c.311,0,.373.062.373.378q0,2.316,0,4.631v.2Zm.147-12.812a1.5,1.5,0,0,0-1.494-1.513,1.507,1.507,0,0,0-1.509,1.5,1.507,1.507,0,0,0,1.513,1.513A1.5,1.5,0,0,0,411.193-794.412Z" transform="translate(-207.259 1301.415)" fill="#00065a" stroke="#00065a" stroke-width="0.25"/>
  </g>
</svg>
