<svg xmlns="http://www.w3.org/2000/svg" xmlns:xlink="http://www.w3.org/1999/xlink" width="1440" height="750" viewBox="0 0 1440 750">
  <defs>
    <clipPath id="clip-path">
      <rect id="Rect치ngulo_1338" data-name="Rect치ngulo 1338" width="1440" height="750" transform="translate(458 5496)" fill="#f3f3f3"/>
    </clipPath>
  </defs>
  <g id="img_fondo_home_clinician" transform="translate(0 -56)">
    <rect id="Rect치ngulo_111" data-name="Rect치ngulo 111" width="1440" height="750" transform="translate(0 56)" fill="#f3f3f3"/>
    <g id="Enmascarar_grupo_26" data-name="Enmascarar grupo 26" transform="translate(-458 -5440)" clip-path="url(#clip-path)">
      <g id="Grupo_3407" data-name="Grupo 3407">
        <g id="Grupo_3322" data-name="Grupo 3322">
          <g id="Grupo_3302" data-name="Grupo 3302" transform="translate(1826 -1187.707)">
            <path id="Trazado_827" data-name="Trazado 827" d="M295.743,308.6h18.028c0-.084-.007-.167-.007-.255a19.571,19.571,0,0,1,19.549-19.549V270.77a37.617,37.617,0,0,0-37.574,37.574C295.74,308.431,295.743,308.515,295.743,308.6Z" transform="translate(-246.446 6422.973)" fill="none" stroke="#dfdfdf" stroke-width="1"/>
            <path id="Trazado_828" data-name="Trazado 828" d="M278,216.2H259.972c0,.084.007.167.007.255A19.571,19.571,0,0,1,240.43,236v18.025A37.617,37.617,0,0,0,278,216.455C278,216.367,278,216.284,278,216.2Z" transform="translate(-210.43 6458.506)" fill="none" stroke="#dfdfdf" stroke-width="1"/>
          </g>
          <g id="Grupo_3303" data-name="Grupo 3303" transform="translate(1748 -1098.707)">
            <path id="Trazado_829" data-name="Trazado 829" d="M295.743,308.6h18.028c0-.084-.007-.167-.007-.255a19.571,19.571,0,0,1,19.549-19.549V270.77a37.617,37.617,0,0,0-37.574,37.574C295.74,308.431,295.743,308.515,295.743,308.6Z" transform="translate(-246.446 6422.973)" fill="none" stroke="#dfdfdf" stroke-width="1"/>
            <path id="Trazado_830" data-name="Trazado 830" d="M278,216.2H259.972c0,.084.007.167.007.255A19.571,19.571,0,0,1,240.43,236v18.025A37.617,37.617,0,0,0,278,216.455C278,216.367,278,216.284,278,216.2Z" transform="translate(-210.43 6458.506)" fill="none" stroke="#dfdfdf" stroke-width="1"/>
          </g>
          <g id="Grupo_3304" data-name="Grupo 3304" transform="translate(1670 -1187.707)">
            <path id="Trazado_831" data-name="Trazado 831" d="M295.743,308.6h18.028c0-.084-.007-.167-.007-.255a19.571,19.571,0,0,1,19.549-19.549V270.77a37.617,37.617,0,0,0-37.574,37.574C295.74,308.431,295.743,308.515,295.743,308.6Z" transform="translate(-246.446 6422.973)" fill="none" stroke="#dfdfdf" stroke-width="1"/>
            <path id="Trazado_832" data-name="Trazado 832" d="M278,216.2H259.972c0,.084.007.167.007.255A19.571,19.571,0,0,1,240.43,236v18.025A37.617,37.617,0,0,0,278,216.455C278,216.367,278,216.284,278,216.2Z" transform="translate(-210.43 6458.506)" fill="none" stroke="#dfdfdf" stroke-width="1"/>
          </g>
          <g id="Grupo_3305" data-name="Grupo 3305" transform="translate(1592 -1098.707)">
            <path id="Trazado_833" data-name="Trazado 833" d="M295.743,308.6h18.028c0-.084-.007-.167-.007-.255a19.571,19.571,0,0,1,19.549-19.549V270.77a37.617,37.617,0,0,0-37.574,37.574C295.74,308.431,295.743,308.515,295.743,308.6Z" transform="translate(-246.446 6422.973)" fill="none" stroke="#dfdfdf" stroke-width="1"/>
            <path id="Trazado_834" data-name="Trazado 834" d="M278,216.2H259.972c0,.084.007.167.007.255A19.571,19.571,0,0,1,240.43,236v18.025A37.617,37.617,0,0,0,278,216.455C278,216.367,278,216.284,278,216.2Z" transform="translate(-210.43 6458.506)" fill="none" stroke="#dfdfdf" stroke-width="1"/>
          </g>
          <g id="Grupo_3306" data-name="Grupo 3306" transform="translate(1514 -1187.707)">
            <path id="Trazado_835" data-name="Trazado 835" d="M295.743,308.6h18.028c0-.084-.007-.167-.007-.255a19.571,19.571,0,0,1,19.549-19.549V270.77a37.617,37.617,0,0,0-37.574,37.574C295.74,308.431,295.743,308.515,295.743,308.6Z" transform="translate(-246.446 6422.973)" fill="none" stroke="#dfdfdf" stroke-width="1"/>
            <path id="Trazado_836" data-name="Trazado 836" d="M278,216.2H259.972c0,.084.007.167.007.255A19.571,19.571,0,0,1,240.43,236v18.025A37.617,37.617,0,0,0,278,216.455C278,216.367,278,216.284,278,216.2Z" transform="translate(-210.43 6458.506)" fill="none" stroke="#dfdfdf" stroke-width="1"/>
          </g>
          <g id="Grupo_3307" data-name="Grupo 3307" transform="translate(1436 -1098.707)">
            <path id="Trazado_837" data-name="Trazado 837" d="M295.743,308.6h18.028c0-.084-.007-.167-.007-.255a19.571,19.571,0,0,1,19.549-19.549V270.77a37.617,37.617,0,0,0-37.574,37.574C295.74,308.431,295.743,308.515,295.743,308.6Z" transform="translate(-246.446 6422.973)" fill="none" stroke="#dfdfdf" stroke-width="1"/>
            <path id="Trazado_838" data-name="Trazado 838" d="M278,216.2H259.972c0,.084.007.167.007.255A19.571,19.571,0,0,1,240.43,236v18.025A37.617,37.617,0,0,0,278,216.455C278,216.367,278,216.284,278,216.2Z" transform="translate(-210.43 6458.506)" fill="none" stroke="#dfdfdf" stroke-width="1"/>
          </g>
          <g id="Grupo_3308" data-name="Grupo 3308" transform="translate(1358 -1187.707)">
            <path id="Trazado_839" data-name="Trazado 839" d="M295.743,308.6h18.028c0-.084-.007-.167-.007-.255a19.571,19.571,0,0,1,19.549-19.549V270.77a37.617,37.617,0,0,0-37.574,37.574C295.74,308.431,295.743,308.515,295.743,308.6Z" transform="translate(-246.446 6422.973)" fill="none" stroke="#dfdfdf" stroke-width="1"/>
            <path id="Trazado_840" data-name="Trazado 840" d="M278,216.2H259.972c0,.084.007.167.007.255A19.571,19.571,0,0,1,240.43,236v18.025A37.617,37.617,0,0,0,278,216.455C278,216.367,278,216.284,278,216.2Z" transform="translate(-210.43 6458.506)" fill="none" stroke="#dfdfdf" stroke-width="1"/>
          </g>
          <g id="Grupo_3309" data-name="Grupo 3309" transform="translate(1280 -1098.707)">
            <path id="Trazado_841" data-name="Trazado 841" d="M295.743,308.6h18.028c0-.084-.007-.167-.007-.255a19.571,19.571,0,0,1,19.549-19.549V270.77a37.617,37.617,0,0,0-37.574,37.574C295.74,308.431,295.743,308.515,295.743,308.6Z" transform="translate(-246.446 6422.973)" fill="none" stroke="#dfdfdf" stroke-width="1"/>
            <path id="Trazado_842" data-name="Trazado 842" d="M278,216.2H259.972c0,.084.007.167.007.255A19.571,19.571,0,0,1,240.43,236v18.025A37.617,37.617,0,0,0,278,216.455C278,216.367,278,216.284,278,216.2Z" transform="translate(-210.43 6458.506)" fill="none" stroke="#dfdfdf" stroke-width="1"/>
          </g>
          <g id="Grupo_3310" data-name="Grupo 3310" transform="translate(1202 -1187.707)">
            <path id="Trazado_843" data-name="Trazado 843" d="M295.743,308.6h18.028c0-.084-.007-.167-.007-.255a19.571,19.571,0,0,1,19.549-19.549V270.77a37.617,37.617,0,0,0-37.574,37.574C295.74,308.431,295.743,308.515,295.743,308.6Z" transform="translate(-246.446 6422.973)" fill="none" stroke="#dfdfdf" stroke-width="1"/>
            <path id="Trazado_844" data-name="Trazado 844" d="M278,216.2H259.972c0,.084.007.167.007.255A19.571,19.571,0,0,1,240.43,236v18.025A37.617,37.617,0,0,0,278,216.455C278,216.367,278,216.284,278,216.2Z" transform="translate(-210.43 6458.506)" fill="none" stroke="#dfdfdf" stroke-width="1"/>
          </g>
          <g id="Grupo_3311" data-name="Grupo 3311" transform="translate(1124 -1098.707)">
            <path id="Trazado_845" data-name="Trazado 845" d="M295.743,308.6h18.028c0-.084-.007-.167-.007-.255a19.571,19.571,0,0,1,19.549-19.549V270.77a37.617,37.617,0,0,0-37.574,37.574C295.74,308.431,295.743,308.515,295.743,308.6Z" transform="translate(-246.446 6422.973)" fill="none" stroke="#dfdfdf" stroke-width="1"/>
            <path id="Trazado_846" data-name="Trazado 846" d="M278,216.2H259.972c0,.084.007.167.007.255A19.571,19.571,0,0,1,240.43,236v18.025A37.617,37.617,0,0,0,278,216.455C278,216.367,278,216.284,278,216.2Z" transform="translate(-210.43 6458.506)" fill="none" stroke="#dfdfdf" stroke-width="1"/>
          </g>
          <g id="Grupo_3312" data-name="Grupo 3312" transform="translate(1046 -1187.707)">
            <path id="Trazado_847" data-name="Trazado 847" d="M295.743,308.6h18.028c0-.084-.007-.167-.007-.255a19.571,19.571,0,0,1,19.549-19.549V270.77a37.617,37.617,0,0,0-37.574,37.574C295.74,308.431,295.743,308.515,295.743,308.6Z" transform="translate(-246.446 6422.973)" fill="none" stroke="#dfdfdf" stroke-width="1"/>
            <path id="Trazado_848" data-name="Trazado 848" d="M278,216.2H259.972c0,.084.007.167.007.255A19.571,19.571,0,0,1,240.43,236v18.025A37.617,37.617,0,0,0,278,216.455C278,216.367,278,216.284,278,216.2Z" transform="translate(-210.43 6458.506)" fill="none" stroke="#dfdfdf" stroke-width="1"/>
          </g>
          <g id="Grupo_3313" data-name="Grupo 3313" transform="translate(968 -1098.707)">
            <path id="Trazado_849" data-name="Trazado 849" d="M295.743,308.6h18.028c0-.084-.007-.167-.007-.255a19.571,19.571,0,0,1,19.549-19.549V270.77a37.617,37.617,0,0,0-37.574,37.574C295.74,308.431,295.743,308.515,295.743,308.6Z" transform="translate(-246.446 6422.973)" fill="none" stroke="#dfdfdf" stroke-width="1"/>
            <path id="Trazado_850" data-name="Trazado 850" d="M278,216.2H259.972c0,.084.007.167.007.255A19.571,19.571,0,0,1,240.43,236v18.025A37.617,37.617,0,0,0,278,216.455C278,216.367,278,216.284,278,216.2Z" transform="translate(-210.43 6458.506)" fill="none" stroke="#dfdfdf" stroke-width="1"/>
          </g>
          <g id="Grupo_3314" data-name="Grupo 3314" transform="translate(890 -1187.707)">
            <path id="Trazado_851" data-name="Trazado 851" d="M295.743,308.6h18.028c0-.084-.007-.167-.007-.255a19.571,19.571,0,0,1,19.549-19.549V270.77a37.617,37.617,0,0,0-37.574,37.574C295.74,308.431,295.743,308.515,295.743,308.6Z" transform="translate(-246.446 6422.973)" fill="none" stroke="#dfdfdf" stroke-width="1"/>
            <path id="Trazado_852" data-name="Trazado 852" d="M278,216.2H259.972c0,.084.007.167.007.255A19.571,19.571,0,0,1,240.43,236v18.025A37.617,37.617,0,0,0,278,216.455C278,216.367,278,216.284,278,216.2Z" transform="translate(-210.43 6458.506)" fill="none" stroke="#dfdfdf" stroke-width="1"/>
          </g>
          <g id="Grupo_3315" data-name="Grupo 3315" transform="translate(812 -1098.707)">
            <path id="Trazado_853" data-name="Trazado 853" d="M295.743,308.6h18.028c0-.084-.007-.167-.007-.255a19.571,19.571,0,0,1,19.549-19.549V270.77a37.617,37.617,0,0,0-37.574,37.574C295.74,308.431,295.743,308.515,295.743,308.6Z" transform="translate(-246.446 6422.973)" fill="none" stroke="#dfdfdf" stroke-width="1"/>
            <path id="Trazado_854" data-name="Trazado 854" d="M278,216.2H259.972c0,.084.007.167.007.255A19.571,19.571,0,0,1,240.43,236v18.025A37.617,37.617,0,0,0,278,216.455C278,216.367,278,216.284,278,216.2Z" transform="translate(-210.43 6458.506)" fill="none" stroke="#dfdfdf" stroke-width="1"/>
          </g>
          <g id="Grupo_3316" data-name="Grupo 3316" transform="translate(734 -1187.707)">
            <path id="Trazado_855" data-name="Trazado 855" d="M295.743,308.6h18.028c0-.084-.007-.167-.007-.255a19.571,19.571,0,0,1,19.549-19.549V270.77a37.617,37.617,0,0,0-37.574,37.574C295.74,308.431,295.743,308.515,295.743,308.6Z" transform="translate(-246.446 6422.973)" fill="none" stroke="#dfdfdf" stroke-width="1"/>
            <path id="Trazado_856" data-name="Trazado 856" d="M278,216.2H259.972c0,.084.007.167.007.255A19.571,19.571,0,0,1,240.43,236v18.025A37.617,37.617,0,0,0,278,216.455C278,216.367,278,216.284,278,216.2Z" transform="translate(-210.43 6458.506)" fill="none" stroke="#dfdfdf" stroke-width="1"/>
          </g>
          <g id="Grupo_3317" data-name="Grupo 3317" transform="translate(656 -1098.707)">
            <path id="Trazado_857" data-name="Trazado 857" d="M295.743,308.6h18.028c0-.084-.007-.167-.007-.255a19.571,19.571,0,0,1,19.549-19.549V270.77a37.617,37.617,0,0,0-37.574,37.574C295.74,308.431,295.743,308.515,295.743,308.6Z" transform="translate(-246.446 6422.973)" fill="none" stroke="#dfdfdf" stroke-width="1"/>
            <path id="Trazado_858" data-name="Trazado 858" d="M278,216.2H259.972c0,.084.007.167.007.255A19.571,19.571,0,0,1,240.43,236v18.025A37.617,37.617,0,0,0,278,216.455C278,216.367,278,216.284,278,216.2Z" transform="translate(-210.43 6458.506)" fill="none" stroke="#dfdfdf" stroke-width="1"/>
          </g>
          <g id="Grupo_3318" data-name="Grupo 3318" transform="translate(578 -1187.707)">
            <path id="Trazado_859" data-name="Trazado 859" d="M295.743,308.6h18.028c0-.084-.007-.167-.007-.255a19.571,19.571,0,0,1,19.549-19.549V270.77a37.617,37.617,0,0,0-37.574,37.574C295.74,308.431,295.743,308.515,295.743,308.6Z" transform="translate(-246.446 6422.973)" fill="none" stroke="#dfdfdf" stroke-width="1"/>
            <path id="Trazado_860" data-name="Trazado 860" d="M278,216.2H259.972c0,.084.007.167.007.255A19.571,19.571,0,0,1,240.43,236v18.025A37.617,37.617,0,0,0,278,216.455C278,216.367,278,216.284,278,216.2Z" transform="translate(-210.43 6458.506)" fill="none" stroke="#dfdfdf" stroke-width="1"/>
          </g>
          <g id="Grupo_3319" data-name="Grupo 3319" transform="translate(500 -1098.707)">
            <path id="Trazado_861" data-name="Trazado 861" d="M295.743,308.6h18.028c0-.084-.007-.167-.007-.255a19.571,19.571,0,0,1,19.549-19.549V270.77a37.617,37.617,0,0,0-37.574,37.574C295.74,308.431,295.743,308.515,295.743,308.6Z" transform="translate(-246.446 6422.973)" fill="none" stroke="#dfdfdf" stroke-width="1"/>
            <path id="Trazado_862" data-name="Trazado 862" d="M278,216.2H259.972c0,.084.007.167.007.255A19.571,19.571,0,0,1,240.43,236v18.025A37.617,37.617,0,0,0,278,216.455C278,216.367,278,216.284,278,216.2Z" transform="translate(-210.43 6458.506)" fill="none" stroke="#dfdfdf" stroke-width="1"/>
          </g>
          <g id="Grupo_3320" data-name="Grupo 3320" transform="translate(422 -1187.707)">
            <path id="Trazado_863" data-name="Trazado 863" d="M295.743,308.6h18.028c0-.084-.007-.167-.007-.255a19.571,19.571,0,0,1,19.549-19.549V270.77a37.617,37.617,0,0,0-37.574,37.574C295.74,308.431,295.743,308.515,295.743,308.6Z" transform="translate(-246.446 6422.973)" fill="none" stroke="#dfdfdf" stroke-width="1"/>
            <path id="Trazado_864" data-name="Trazado 864" d="M278,216.2H259.972c0,.084.007.167.007.255A19.571,19.571,0,0,1,240.43,236v18.025A37.617,37.617,0,0,0,278,216.455C278,216.367,278,216.284,278,216.2Z" transform="translate(-210.43 6458.506)" fill="none" stroke="#dfdfdf" stroke-width="1"/>
          </g>
          <g id="Grupo_3321" data-name="Grupo 3321" transform="translate(344 -1098.707)">
            <path id="Trazado_865" data-name="Trazado 865" d="M295.743,308.6h18.028c0-.084-.007-.167-.007-.255a19.571,19.571,0,0,1,19.549-19.549V270.77a37.617,37.617,0,0,0-37.574,37.574C295.74,308.431,295.743,308.515,295.743,308.6Z" transform="translate(-246.446 6422.973)" fill="none" stroke="#dfdfdf" stroke-width="1"/>
            <path id="Trazado_866" data-name="Trazado 866" d="M278,216.2H259.972c0,.084.007.167.007.255A19.571,19.571,0,0,1,240.43,236v18.025A37.617,37.617,0,0,0,278,216.455C278,216.367,278,216.284,278,216.2Z" transform="translate(-210.43 6458.506)" fill="none" stroke="#dfdfdf" stroke-width="1"/>
          </g>
        </g>
        <g id="Grupo_3343" data-name="Grupo 3343" transform="translate(0 358)">
          <g id="Grupo_3323" data-name="Grupo 3323" transform="translate(1826 -1187.707)">
            <path id="Trazado_867" data-name="Trazado 867" d="M295.743,308.6h18.028c0-.084-.007-.167-.007-.255a19.571,19.571,0,0,1,19.549-19.549V270.77a37.617,37.617,0,0,0-37.574,37.574C295.74,308.431,295.743,308.515,295.743,308.6Z" transform="translate(-246.446 6422.973)" fill="none" stroke="#dfdfdf" stroke-width="1"/>
            <path id="Trazado_868" data-name="Trazado 868" d="M278,216.2H259.972c0,.084.007.167.007.255A19.571,19.571,0,0,1,240.43,236v18.025A37.617,37.617,0,0,0,278,216.455C278,216.367,278,216.284,278,216.2Z" transform="translate(-210.43 6458.506)" fill="none" stroke="#dfdfdf" stroke-width="1"/>
          </g>
          <g id="Grupo_3324" data-name="Grupo 3324" transform="translate(1748 -1098.707)">
            <path id="Trazado_869" data-name="Trazado 869" d="M295.743,308.6h18.028c0-.084-.007-.167-.007-.255a19.571,19.571,0,0,1,19.549-19.549V270.77a37.617,37.617,0,0,0-37.574,37.574C295.74,308.431,295.743,308.515,295.743,308.6Z" transform="translate(-246.446 6422.973)" fill="none" stroke="#dfdfdf" stroke-width="1"/>
            <path id="Trazado_870" data-name="Trazado 870" d="M278,216.2H259.972c0,.084.007.167.007.255A19.571,19.571,0,0,1,240.43,236v18.025A37.617,37.617,0,0,0,278,216.455C278,216.367,278,216.284,278,216.2Z" transform="translate(-210.43 6458.506)" fill="none" stroke="#dfdfdf" stroke-width="1"/>
          </g>
          <g id="Grupo_3325" data-name="Grupo 3325" transform="translate(1670 -1187.707)">
            <path id="Trazado_871" data-name="Trazado 871" d="M295.743,308.6h18.028c0-.084-.007-.167-.007-.255a19.571,19.571,0,0,1,19.549-19.549V270.77a37.617,37.617,0,0,0-37.574,37.574C295.74,308.431,295.743,308.515,295.743,308.6Z" transform="translate(-246.446 6422.973)" fill="none" stroke="#dfdfdf" stroke-width="1"/>
            <path id="Trazado_872" data-name="Trazado 872" d="M278,216.2H259.972c0,.084.007.167.007.255A19.571,19.571,0,0,1,240.43,236v18.025A37.617,37.617,0,0,0,278,216.455C278,216.367,278,216.284,278,216.2Z" transform="translate(-210.43 6458.506)" fill="none" stroke="#dfdfdf" stroke-width="1"/>
          </g>
          <g id="Grupo_3326" data-name="Grupo 3326" transform="translate(1592 -1098.707)">
            <path id="Trazado_873" data-name="Trazado 873" d="M295.743,308.6h18.028c0-.084-.007-.167-.007-.255a19.571,19.571,0,0,1,19.549-19.549V270.77a37.617,37.617,0,0,0-37.574,37.574C295.74,308.431,295.743,308.515,295.743,308.6Z" transform="translate(-246.446 6422.973)" fill="none" stroke="#dfdfdf" stroke-width="1"/>
            <path id="Trazado_874" data-name="Trazado 874" d="M278,216.2H259.972c0,.084.007.167.007.255A19.571,19.571,0,0,1,240.43,236v18.025A37.617,37.617,0,0,0,278,216.455C278,216.367,278,216.284,278,216.2Z" transform="translate(-210.43 6458.506)" fill="none" stroke="#dfdfdf" stroke-width="1"/>
          </g>
          <g id="Grupo_3327" data-name="Grupo 3327" transform="translate(1514 -1187.707)">
            <path id="Trazado_875" data-name="Trazado 875" d="M295.743,308.6h18.028c0-.084-.007-.167-.007-.255a19.571,19.571,0,0,1,19.549-19.549V270.77a37.617,37.617,0,0,0-37.574,37.574C295.74,308.431,295.743,308.515,295.743,308.6Z" transform="translate(-246.446 6422.973)" fill="none" stroke="#dfdfdf" stroke-width="1"/>
            <path id="Trazado_876" data-name="Trazado 876" d="M278,216.2H259.972c0,.084.007.167.007.255A19.571,19.571,0,0,1,240.43,236v18.025A37.617,37.617,0,0,0,278,216.455C278,216.367,278,216.284,278,216.2Z" transform="translate(-210.43 6458.506)" fill="none" stroke="#dfdfdf" stroke-width="1"/>
          </g>
          <g id="Grupo_3328" data-name="Grupo 3328" transform="translate(1436 -1098.707)">
            <path id="Trazado_877" data-name="Trazado 877" d="M295.743,308.6h18.028c0-.084-.007-.167-.007-.255a19.571,19.571,0,0,1,19.549-19.549V270.77a37.617,37.617,0,0,0-37.574,37.574C295.74,308.431,295.743,308.515,295.743,308.6Z" transform="translate(-246.446 6422.973)" fill="none" stroke="#dfdfdf" stroke-width="1"/>
            <path id="Trazado_878" data-name="Trazado 878" d="M278,216.2H259.972c0,.084.007.167.007.255A19.571,19.571,0,0,1,240.43,236v18.025A37.617,37.617,0,0,0,278,216.455C278,216.367,278,216.284,278,216.2Z" transform="translate(-210.43 6458.506)" fill="none" stroke="#dfdfdf" stroke-width="1"/>
          </g>
          <g id="Grupo_3329" data-name="Grupo 3329" transform="translate(1358 -1187.707)">
            <path id="Trazado_879" data-name="Trazado 879" d="M295.743,308.6h18.028c0-.084-.007-.167-.007-.255a19.571,19.571,0,0,1,19.549-19.549V270.77a37.617,37.617,0,0,0-37.574,37.574C295.74,308.431,295.743,308.515,295.743,308.6Z" transform="translate(-246.446 6422.973)" fill="none" stroke="#dfdfdf" stroke-width="1"/>
            <path id="Trazado_880" data-name="Trazado 880" d="M278,216.2H259.972c0,.084.007.167.007.255A19.571,19.571,0,0,1,240.43,236v18.025A37.617,37.617,0,0,0,278,216.455C278,216.367,278,216.284,278,216.2Z" transform="translate(-210.43 6458.506)" fill="none" stroke="#dfdfdf" stroke-width="1"/>
          </g>
          <g id="Grupo_3330" data-name="Grupo 3330" transform="translate(1280 -1098.707)">
            <path id="Trazado_881" data-name="Trazado 881" d="M295.743,308.6h18.028c0-.084-.007-.167-.007-.255a19.571,19.571,0,0,1,19.549-19.549V270.77a37.617,37.617,0,0,0-37.574,37.574C295.74,308.431,295.743,308.515,295.743,308.6Z" transform="translate(-246.446 6422.973)" fill="none" stroke="#dfdfdf" stroke-width="1"/>
            <path id="Trazado_882" data-name="Trazado 882" d="M278,216.2H259.972c0,.084.007.167.007.255A19.571,19.571,0,0,1,240.43,236v18.025A37.617,37.617,0,0,0,278,216.455C278,216.367,278,216.284,278,216.2Z" transform="translate(-210.43 6458.506)" fill="none" stroke="#dfdfdf" stroke-width="1"/>
          </g>
          <g id="Grupo_3331" data-name="Grupo 3331" transform="translate(1202 -1187.707)">
            <path id="Trazado_883" data-name="Trazado 883" d="M295.743,308.6h18.028c0-.084-.007-.167-.007-.255a19.571,19.571,0,0,1,19.549-19.549V270.77a37.617,37.617,0,0,0-37.574,37.574C295.74,308.431,295.743,308.515,295.743,308.6Z" transform="translate(-246.446 6422.973)" fill="none" stroke="#dfdfdf" stroke-width="1"/>
            <path id="Trazado_884" data-name="Trazado 884" d="M278,216.2H259.972c0,.084.007.167.007.255A19.571,19.571,0,0,1,240.43,236v18.025A37.617,37.617,0,0,0,278,216.455C278,216.367,278,216.284,278,216.2Z" transform="translate(-210.43 6458.506)" fill="none" stroke="#dfdfdf" stroke-width="1"/>
          </g>
          <g id="Grupo_3332" data-name="Grupo 3332" transform="translate(1124 -1098.707)">
            <path id="Trazado_885" data-name="Trazado 885" d="M295.743,308.6h18.028c0-.084-.007-.167-.007-.255a19.571,19.571,0,0,1,19.549-19.549V270.77a37.617,37.617,0,0,0-37.574,37.574C295.74,308.431,295.743,308.515,295.743,308.6Z" transform="translate(-246.446 6422.973)" fill="none" stroke="#dfdfdf" stroke-width="1"/>
            <path id="Trazado_886" data-name="Trazado 886" d="M278,216.2H259.972c0,.084.007.167.007.255A19.571,19.571,0,0,1,240.43,236v18.025A37.617,37.617,0,0,0,278,216.455C278,216.367,278,216.284,278,216.2Z" transform="translate(-210.43 6458.506)" fill="none" stroke="#dfdfdf" stroke-width="1"/>
          </g>
          <g id="Grupo_3333" data-name="Grupo 3333" transform="translate(1046 -1187.707)">
            <path id="Trazado_887" data-name="Trazado 887" d="M295.743,308.6h18.028c0-.084-.007-.167-.007-.255a19.571,19.571,0,0,1,19.549-19.549V270.77a37.617,37.617,0,0,0-37.574,37.574C295.74,308.431,295.743,308.515,295.743,308.6Z" transform="translate(-246.446 6422.973)" fill="none" stroke="#dfdfdf" stroke-width="1"/>
            <path id="Trazado_888" data-name="Trazado 888" d="M278,216.2H259.972c0,.084.007.167.007.255A19.571,19.571,0,0,1,240.43,236v18.025A37.617,37.617,0,0,0,278,216.455C278,216.367,278,216.284,278,216.2Z" transform="translate(-210.43 6458.506)" fill="none" stroke="#dfdfdf" stroke-width="1"/>
          </g>
          <g id="Grupo_3334" data-name="Grupo 3334" transform="translate(968 -1098.707)">
            <path id="Trazado_889" data-name="Trazado 889" d="M295.743,308.6h18.028c0-.084-.007-.167-.007-.255a19.571,19.571,0,0,1,19.549-19.549V270.77a37.617,37.617,0,0,0-37.574,37.574C295.74,308.431,295.743,308.515,295.743,308.6Z" transform="translate(-246.446 6422.973)" fill="none" stroke="#dfdfdf" stroke-width="1"/>
            <path id="Trazado_890" data-name="Trazado 890" d="M278,216.2H259.972c0,.084.007.167.007.255A19.571,19.571,0,0,1,240.43,236v18.025A37.617,37.617,0,0,0,278,216.455C278,216.367,278,216.284,278,216.2Z" transform="translate(-210.43 6458.506)" fill="none" stroke="#dfdfdf" stroke-width="1"/>
          </g>
          <g id="Grupo_3335" data-name="Grupo 3335" transform="translate(890 -1187.707)">
            <path id="Trazado_891" data-name="Trazado 891" d="M295.743,308.6h18.028c0-.084-.007-.167-.007-.255a19.571,19.571,0,0,1,19.549-19.549V270.77a37.617,37.617,0,0,0-37.574,37.574C295.74,308.431,295.743,308.515,295.743,308.6Z" transform="translate(-246.446 6422.973)" fill="none" stroke="#dfdfdf" stroke-width="1"/>
            <path id="Trazado_892" data-name="Trazado 892" d="M278,216.2H259.972c0,.084.007.167.007.255A19.571,19.571,0,0,1,240.43,236v18.025A37.617,37.617,0,0,0,278,216.455C278,216.367,278,216.284,278,216.2Z" transform="translate(-210.43 6458.506)" fill="none" stroke="#dfdfdf" stroke-width="1"/>
          </g>
          <g id="Grupo_3336" data-name="Grupo 3336" transform="translate(812 -1098.707)">
            <path id="Trazado_893" data-name="Trazado 893" d="M295.743,308.6h18.028c0-.084-.007-.167-.007-.255a19.571,19.571,0,0,1,19.549-19.549V270.77a37.617,37.617,0,0,0-37.574,37.574C295.74,308.431,295.743,308.515,295.743,308.6Z" transform="translate(-246.446 6422.973)" fill="none" stroke="#dfdfdf" stroke-width="1"/>
            <path id="Trazado_894" data-name="Trazado 894" d="M278,216.2H259.972c0,.084.007.167.007.255A19.571,19.571,0,0,1,240.43,236v18.025A37.617,37.617,0,0,0,278,216.455C278,216.367,278,216.284,278,216.2Z" transform="translate(-210.43 6458.506)" fill="none" stroke="#dfdfdf" stroke-width="1"/>
          </g>
          <g id="Grupo_3337" data-name="Grupo 3337" transform="translate(734 -1187.707)">
            <path id="Trazado_895" data-name="Trazado 895" d="M295.743,308.6h18.028c0-.084-.007-.167-.007-.255a19.571,19.571,0,0,1,19.549-19.549V270.77a37.617,37.617,0,0,0-37.574,37.574C295.74,308.431,295.743,308.515,295.743,308.6Z" transform="translate(-246.446 6422.973)" fill="none" stroke="#dfdfdf" stroke-width="1"/>
            <path id="Trazado_896" data-name="Trazado 896" d="M278,216.2H259.972c0,.084.007.167.007.255A19.571,19.571,0,0,1,240.43,236v18.025A37.617,37.617,0,0,0,278,216.455C278,216.367,278,216.284,278,216.2Z" transform="translate(-210.43 6458.506)" fill="none" stroke="#dfdfdf" stroke-width="1"/>
          </g>
          <g id="Grupo_3338" data-name="Grupo 3338" transform="translate(656 -1098.707)">
            <path id="Trazado_897" data-name="Trazado 897" d="M295.743,308.6h18.028c0-.084-.007-.167-.007-.255a19.571,19.571,0,0,1,19.549-19.549V270.77a37.617,37.617,0,0,0-37.574,37.574C295.74,308.431,295.743,308.515,295.743,308.6Z" transform="translate(-246.446 6422.973)" fill="none" stroke="#dfdfdf" stroke-width="1"/>
            <path id="Trazado_898" data-name="Trazado 898" d="M278,216.2H259.972c0,.084.007.167.007.255A19.571,19.571,0,0,1,240.43,236v18.025A37.617,37.617,0,0,0,278,216.455C278,216.367,278,216.284,278,216.2Z" transform="translate(-210.43 6458.506)" fill="none" stroke="#dfdfdf" stroke-width="1"/>
          </g>
          <g id="Grupo_3339" data-name="Grupo 3339" transform="translate(578 -1187.707)">
            <path id="Trazado_899" data-name="Trazado 899" d="M295.743,308.6h18.028c0-.084-.007-.167-.007-.255a19.571,19.571,0,0,1,19.549-19.549V270.77a37.617,37.617,0,0,0-37.574,37.574C295.74,308.431,295.743,308.515,295.743,308.6Z" transform="translate(-246.446 6422.973)" fill="none" stroke="#dfdfdf" stroke-width="1"/>
            <path id="Trazado_900" data-name="Trazado 900" d="M278,216.2H259.972c0,.084.007.167.007.255A19.571,19.571,0,0,1,240.43,236v18.025A37.617,37.617,0,0,0,278,216.455C278,216.367,278,216.284,278,216.2Z" transform="translate(-210.43 6458.506)" fill="none" stroke="#dfdfdf" stroke-width="1"/>
          </g>
          <g id="Grupo_3340" data-name="Grupo 3340" transform="translate(500 -1098.707)">
            <path id="Trazado_901" data-name="Trazado 901" d="M295.743,308.6h18.028c0-.084-.007-.167-.007-.255a19.571,19.571,0,0,1,19.549-19.549V270.77a37.617,37.617,0,0,0-37.574,37.574C295.74,308.431,295.743,308.515,295.743,308.6Z" transform="translate(-246.446 6422.973)" fill="none" stroke="#dfdfdf" stroke-width="1"/>
            <path id="Trazado_902" data-name="Trazado 902" d="M278,216.2H259.972c0,.084.007.167.007.255A19.571,19.571,0,0,1,240.43,236v18.025A37.617,37.617,0,0,0,278,216.455C278,216.367,278,216.284,278,216.2Z" transform="translate(-210.43 6458.506)" fill="none" stroke="#dfdfdf" stroke-width="1"/>
          </g>
          <g id="Grupo_3341" data-name="Grupo 3341" transform="translate(422 -1187.707)">
            <path id="Trazado_903" data-name="Trazado 903" d="M295.743,308.6h18.028c0-.084-.007-.167-.007-.255a19.571,19.571,0,0,1,19.549-19.549V270.77a37.617,37.617,0,0,0-37.574,37.574C295.74,308.431,295.743,308.515,295.743,308.6Z" transform="translate(-246.446 6422.973)" fill="none" stroke="#dfdfdf" stroke-width="1"/>
            <path id="Trazado_904" data-name="Trazado 904" d="M278,216.2H259.972c0,.084.007.167.007.255A19.571,19.571,0,0,1,240.43,236v18.025A37.617,37.617,0,0,0,278,216.455C278,216.367,278,216.284,278,216.2Z" transform="translate(-210.43 6458.506)" fill="none" stroke="#dfdfdf" stroke-width="1"/>
          </g>
          <g id="Grupo_3342" data-name="Grupo 3342" transform="translate(344 -1098.707)">
            <path id="Trazado_905" data-name="Trazado 905" d="M295.743,308.6h18.028c0-.084-.007-.167-.007-.255a19.571,19.571,0,0,1,19.549-19.549V270.77a37.617,37.617,0,0,0-37.574,37.574C295.74,308.431,295.743,308.515,295.743,308.6Z" transform="translate(-246.446 6422.973)" fill="none" stroke="#dfdfdf" stroke-width="1"/>
            <path id="Trazado_906" data-name="Trazado 906" d="M278,216.2H259.972c0,.084.007.167.007.255A19.571,19.571,0,0,1,240.43,236v18.025A37.617,37.617,0,0,0,278,216.455C278,216.367,278,216.284,278,216.2Z" transform="translate(-210.43 6458.506)" fill="none" stroke="#dfdfdf" stroke-width="1"/>
          </g>
        </g>
        <g id="Grupo_3364" data-name="Grupo 3364" transform="translate(0 179)">
          <g id="Grupo_3344" data-name="Grupo 3344" transform="translate(1826 -1187.707)">
            <path id="Trazado_907" data-name="Trazado 907" d="M295.743,308.6h18.028c0-.084-.007-.167-.007-.255a19.571,19.571,0,0,1,19.549-19.549V270.77a37.617,37.617,0,0,0-37.574,37.574C295.74,308.431,295.743,308.515,295.743,308.6Z" transform="translate(-246.446 6422.973)" fill="none" stroke="#dfdfdf" stroke-width="1"/>
            <path id="Trazado_908" data-name="Trazado 908" d="M278,216.2H259.972c0,.084.007.167.007.255A19.571,19.571,0,0,1,240.43,236v18.025A37.617,37.617,0,0,0,278,216.455C278,216.367,278,216.284,278,216.2Z" transform="translate(-210.43 6458.506)" fill="none" stroke="#dfdfdf" stroke-width="1"/>
          </g>
          <g id="Grupo_3345" data-name="Grupo 3345" transform="translate(1748 -1098.707)">
            <path id="Trazado_909" data-name="Trazado 909" d="M295.743,308.6h18.028c0-.084-.007-.167-.007-.255a19.571,19.571,0,0,1,19.549-19.549V270.77a37.617,37.617,0,0,0-37.574,37.574C295.74,308.431,295.743,308.515,295.743,308.6Z" transform="translate(-246.446 6422.973)" fill="none" stroke="#dfdfdf" stroke-width="1"/>
            <path id="Trazado_910" data-name="Trazado 910" d="M278,216.2H259.972c0,.084.007.167.007.255A19.571,19.571,0,0,1,240.43,236v18.025A37.617,37.617,0,0,0,278,216.455C278,216.367,278,216.284,278,216.2Z" transform="translate(-210.43 6458.506)" fill="none" stroke="#dfdfdf" stroke-width="1"/>
          </g>
          <g id="Grupo_3346" data-name="Grupo 3346" transform="translate(1670 -1187.707)">
            <path id="Trazado_911" data-name="Trazado 911" d="M295.743,308.6h18.028c0-.084-.007-.167-.007-.255a19.571,19.571,0,0,1,19.549-19.549V270.77a37.617,37.617,0,0,0-37.574,37.574C295.74,308.431,295.743,308.515,295.743,308.6Z" transform="translate(-246.446 6422.973)" fill="none" stroke="#dfdfdf" stroke-width="1"/>
            <path id="Trazado_912" data-name="Trazado 912" d="M278,216.2H259.972c0,.084.007.167.007.255A19.571,19.571,0,0,1,240.43,236v18.025A37.617,37.617,0,0,0,278,216.455C278,216.367,278,216.284,278,216.2Z" transform="translate(-210.43 6458.506)" fill="none" stroke="#dfdfdf" stroke-width="1"/>
          </g>
          <g id="Grupo_3347" data-name="Grupo 3347" transform="translate(1592 -1098.707)">
            <path id="Trazado_913" data-name="Trazado 913" d="M295.743,308.6h18.028c0-.084-.007-.167-.007-.255a19.571,19.571,0,0,1,19.549-19.549V270.77a37.617,37.617,0,0,0-37.574,37.574C295.74,308.431,295.743,308.515,295.743,308.6Z" transform="translate(-246.446 6422.973)" fill="none" stroke="#dfdfdf" stroke-width="1"/>
            <path id="Trazado_914" data-name="Trazado 914" d="M278,216.2H259.972c0,.084.007.167.007.255A19.571,19.571,0,0,1,240.43,236v18.025A37.617,37.617,0,0,0,278,216.455C278,216.367,278,216.284,278,216.2Z" transform="translate(-210.43 6458.506)" fill="none" stroke="#dfdfdf" stroke-width="1"/>
          </g>
          <g id="Grupo_3348" data-name="Grupo 3348" transform="translate(1514 -1187.707)">
            <path id="Trazado_915" data-name="Trazado 915" d="M295.743,308.6h18.028c0-.084-.007-.167-.007-.255a19.571,19.571,0,0,1,19.549-19.549V270.77a37.617,37.617,0,0,0-37.574,37.574C295.74,308.431,295.743,308.515,295.743,308.6Z" transform="translate(-246.446 6422.973)" fill="none" stroke="#dfdfdf" stroke-width="1"/>
            <path id="Trazado_916" data-name="Trazado 916" d="M278,216.2H259.972c0,.084.007.167.007.255A19.571,19.571,0,0,1,240.43,236v18.025A37.617,37.617,0,0,0,278,216.455C278,216.367,278,216.284,278,216.2Z" transform="translate(-210.43 6458.506)" fill="none" stroke="#dfdfdf" stroke-width="1"/>
          </g>
          <g id="Grupo_3349" data-name="Grupo 3349" transform="translate(1436 -1098.707)">
            <path id="Trazado_917" data-name="Trazado 917" d="M295.743,308.6h18.028c0-.084-.007-.167-.007-.255a19.571,19.571,0,0,1,19.549-19.549V270.77a37.617,37.617,0,0,0-37.574,37.574C295.74,308.431,295.743,308.515,295.743,308.6Z" transform="translate(-246.446 6422.973)" fill="none" stroke="#dfdfdf" stroke-width="1"/>
            <path id="Trazado_918" data-name="Trazado 918" d="M278,216.2H259.972c0,.084.007.167.007.255A19.571,19.571,0,0,1,240.43,236v18.025A37.617,37.617,0,0,0,278,216.455C278,216.367,278,216.284,278,216.2Z" transform="translate(-210.43 6458.506)" fill="none" stroke="#dfdfdf" stroke-width="1"/>
          </g>
          <g id="Grupo_3350" data-name="Grupo 3350" transform="translate(1358 -1187.707)">
            <path id="Trazado_919" data-name="Trazado 919" d="M295.743,308.6h18.028c0-.084-.007-.167-.007-.255a19.571,19.571,0,0,1,19.549-19.549V270.77a37.617,37.617,0,0,0-37.574,37.574C295.74,308.431,295.743,308.515,295.743,308.6Z" transform="translate(-246.446 6422.973)" fill="none" stroke="#dfdfdf" stroke-width="1"/>
            <path id="Trazado_920" data-name="Trazado 920" d="M278,216.2H259.972c0,.084.007.167.007.255A19.571,19.571,0,0,1,240.43,236v18.025A37.617,37.617,0,0,0,278,216.455C278,216.367,278,216.284,278,216.2Z" transform="translate(-210.43 6458.506)" fill="none" stroke="#dfdfdf" stroke-width="1"/>
          </g>
          <g id="Grupo_3351" data-name="Grupo 3351" transform="translate(1280 -1098.707)">
            <path id="Trazado_921" data-name="Trazado 921" d="M295.743,308.6h18.028c0-.084-.007-.167-.007-.255a19.571,19.571,0,0,1,19.549-19.549V270.77a37.617,37.617,0,0,0-37.574,37.574C295.74,308.431,295.743,308.515,295.743,308.6Z" transform="translate(-246.446 6422.973)" fill="none" stroke="#dfdfdf" stroke-width="1"/>
            <path id="Trazado_922" data-name="Trazado 922" d="M278,216.2H259.972c0,.084.007.167.007.255A19.571,19.571,0,0,1,240.43,236v18.025A37.617,37.617,0,0,0,278,216.455C278,216.367,278,216.284,278,216.2Z" transform="translate(-210.43 6458.506)" fill="none" stroke="#dfdfdf" stroke-width="1"/>
          </g>
          <g id="Grupo_3352" data-name="Grupo 3352" transform="translate(1202 -1187.707)">
            <path id="Trazado_923" data-name="Trazado 923" d="M295.743,308.6h18.028c0-.084-.007-.167-.007-.255a19.571,19.571,0,0,1,19.549-19.549V270.77a37.617,37.617,0,0,0-37.574,37.574C295.74,308.431,295.743,308.515,295.743,308.6Z" transform="translate(-246.446 6422.973)" fill="none" stroke="#dfdfdf" stroke-width="1"/>
            <path id="Trazado_924" data-name="Trazado 924" d="M278,216.2H259.972c0,.084.007.167.007.255A19.571,19.571,0,0,1,240.43,236v18.025A37.617,37.617,0,0,0,278,216.455C278,216.367,278,216.284,278,216.2Z" transform="translate(-210.43 6458.506)" fill="none" stroke="#dfdfdf" stroke-width="1"/>
          </g>
          <g id="Grupo_3353" data-name="Grupo 3353" transform="translate(1124 -1098.707)">
            <path id="Trazado_925" data-name="Trazado 925" d="M295.743,308.6h18.028c0-.084-.007-.167-.007-.255a19.571,19.571,0,0,1,19.549-19.549V270.77a37.617,37.617,0,0,0-37.574,37.574C295.74,308.431,295.743,308.515,295.743,308.6Z" transform="translate(-246.446 6422.973)" fill="none" stroke="#dfdfdf" stroke-width="1"/>
            <path id="Trazado_926" data-name="Trazado 926" d="M278,216.2H259.972c0,.084.007.167.007.255A19.571,19.571,0,0,1,240.43,236v18.025A37.617,37.617,0,0,0,278,216.455C278,216.367,278,216.284,278,216.2Z" transform="translate(-210.43 6458.506)" fill="none" stroke="#dfdfdf" stroke-width="1"/>
          </g>
          <g id="Grupo_3354" data-name="Grupo 3354" transform="translate(1046 -1187.707)">
            <path id="Trazado_927" data-name="Trazado 927" d="M295.743,308.6h18.028c0-.084-.007-.167-.007-.255a19.571,19.571,0,0,1,19.549-19.549V270.77a37.617,37.617,0,0,0-37.574,37.574C295.74,308.431,295.743,308.515,295.743,308.6Z" transform="translate(-246.446 6422.973)" fill="none" stroke="#dfdfdf" stroke-width="1"/>
            <path id="Trazado_928" data-name="Trazado 928" d="M278,216.2H259.972c0,.084.007.167.007.255A19.571,19.571,0,0,1,240.43,236v18.025A37.617,37.617,0,0,0,278,216.455C278,216.367,278,216.284,278,216.2Z" transform="translate(-210.43 6458.506)" fill="none" stroke="#dfdfdf" stroke-width="1"/>
          </g>
          <g id="Grupo_3355" data-name="Grupo 3355" transform="translate(968 -1098.707)">
            <path id="Trazado_929" data-name="Trazado 929" d="M295.743,308.6h18.028c0-.084-.007-.167-.007-.255a19.571,19.571,0,0,1,19.549-19.549V270.77a37.617,37.617,0,0,0-37.574,37.574C295.74,308.431,295.743,308.515,295.743,308.6Z" transform="translate(-246.446 6422.973)" fill="none" stroke="#dfdfdf" stroke-width="1"/>
            <path id="Trazado_930" data-name="Trazado 930" d="M278,216.2H259.972c0,.084.007.167.007.255A19.571,19.571,0,0,1,240.43,236v18.025A37.617,37.617,0,0,0,278,216.455C278,216.367,278,216.284,278,216.2Z" transform="translate(-210.43 6458.506)" fill="none" stroke="#dfdfdf" stroke-width="1"/>
          </g>
          <g id="Grupo_3356" data-name="Grupo 3356" transform="translate(890 -1187.707)">
            <path id="Trazado_931" data-name="Trazado 931" d="M295.743,308.6h18.028c0-.084-.007-.167-.007-.255a19.571,19.571,0,0,1,19.549-19.549V270.77a37.617,37.617,0,0,0-37.574,37.574C295.74,308.431,295.743,308.515,295.743,308.6Z" transform="translate(-246.446 6422.973)" fill="none" stroke="#dfdfdf" stroke-width="1"/>
            <path id="Trazado_932" data-name="Trazado 932" d="M278,216.2H259.972c0,.084.007.167.007.255A19.571,19.571,0,0,1,240.43,236v18.025A37.617,37.617,0,0,0,278,216.455C278,216.367,278,216.284,278,216.2Z" transform="translate(-210.43 6458.506)" fill="none" stroke="#dfdfdf" stroke-width="1"/>
          </g>
          <g id="Grupo_3357" data-name="Grupo 3357" transform="translate(812 -1098.707)">
            <path id="Trazado_933" data-name="Trazado 933" d="M295.743,308.6h18.028c0-.084-.007-.167-.007-.255a19.571,19.571,0,0,1,19.549-19.549V270.77a37.617,37.617,0,0,0-37.574,37.574C295.74,308.431,295.743,308.515,295.743,308.6Z" transform="translate(-246.446 6422.973)" fill="none" stroke="#dfdfdf" stroke-width="1"/>
            <path id="Trazado_934" data-name="Trazado 934" d="M278,216.2H259.972c0,.084.007.167.007.255A19.571,19.571,0,0,1,240.43,236v18.025A37.617,37.617,0,0,0,278,216.455C278,216.367,278,216.284,278,216.2Z" transform="translate(-210.43 6458.506)" fill="none" stroke="#dfdfdf" stroke-width="1"/>
          </g>
          <g id="Grupo_3358" data-name="Grupo 3358" transform="translate(734 -1187.707)">
            <path id="Trazado_935" data-name="Trazado 935" d="M295.743,308.6h18.028c0-.084-.007-.167-.007-.255a19.571,19.571,0,0,1,19.549-19.549V270.77a37.617,37.617,0,0,0-37.574,37.574C295.74,308.431,295.743,308.515,295.743,308.6Z" transform="translate(-246.446 6422.973)" fill="none" stroke="#dfdfdf" stroke-width="1"/>
            <path id="Trazado_936" data-name="Trazado 936" d="M278,216.2H259.972c0,.084.007.167.007.255A19.571,19.571,0,0,1,240.43,236v18.025A37.617,37.617,0,0,0,278,216.455C278,216.367,278,216.284,278,216.2Z" transform="translate(-210.43 6458.506)" fill="none" stroke="#dfdfdf" stroke-width="1"/>
          </g>
          <g id="Grupo_3359" data-name="Grupo 3359" transform="translate(656 -1098.707)">
            <path id="Trazado_937" data-name="Trazado 937" d="M295.743,308.6h18.028c0-.084-.007-.167-.007-.255a19.571,19.571,0,0,1,19.549-19.549V270.77a37.617,37.617,0,0,0-37.574,37.574C295.74,308.431,295.743,308.515,295.743,308.6Z" transform="translate(-246.446 6422.973)" fill="none" stroke="#dfdfdf" stroke-width="1"/>
            <path id="Trazado_938" data-name="Trazado 938" d="M278,216.2H259.972c0,.084.007.167.007.255A19.571,19.571,0,0,1,240.43,236v18.025A37.617,37.617,0,0,0,278,216.455C278,216.367,278,216.284,278,216.2Z" transform="translate(-210.43 6458.506)" fill="none" stroke="#dfdfdf" stroke-width="1"/>
          </g>
          <g id="Grupo_3360" data-name="Grupo 3360" transform="translate(578 -1187.707)">
            <path id="Trazado_939" data-name="Trazado 939" d="M295.743,308.6h18.028c0-.084-.007-.167-.007-.255a19.571,19.571,0,0,1,19.549-19.549V270.77a37.617,37.617,0,0,0-37.574,37.574C295.74,308.431,295.743,308.515,295.743,308.6Z" transform="translate(-246.446 6422.973)" fill="none" stroke="#dfdfdf" stroke-width="1"/>
            <path id="Trazado_940" data-name="Trazado 940" d="M278,216.2H259.972c0,.084.007.167.007.255A19.571,19.571,0,0,1,240.43,236v18.025A37.617,37.617,0,0,0,278,216.455C278,216.367,278,216.284,278,216.2Z" transform="translate(-210.43 6458.506)" fill="none" stroke="#dfdfdf" stroke-width="1"/>
          </g>
          <g id="Grupo_3361" data-name="Grupo 3361" transform="translate(500 -1098.707)">
            <path id="Trazado_941" data-name="Trazado 941" d="M295.743,308.6h18.028c0-.084-.007-.167-.007-.255a19.571,19.571,0,0,1,19.549-19.549V270.77a37.617,37.617,0,0,0-37.574,37.574C295.74,308.431,295.743,308.515,295.743,308.6Z" transform="translate(-246.446 6422.973)" fill="none" stroke="#dfdfdf" stroke-width="1"/>
            <path id="Trazado_942" data-name="Trazado 942" d="M278,216.2H259.972c0,.084.007.167.007.255A19.571,19.571,0,0,1,240.43,236v18.025A37.617,37.617,0,0,0,278,216.455C278,216.367,278,216.284,278,216.2Z" transform="translate(-210.43 6458.506)" fill="none" stroke="#dfdfdf" stroke-width="1"/>
          </g>
          <g id="Grupo_3362" data-name="Grupo 3362" transform="translate(422 -1187.707)">
            <path id="Trazado_943" data-name="Trazado 943" d="M295.743,308.6h18.028c0-.084-.007-.167-.007-.255a19.571,19.571,0,0,1,19.549-19.549V270.77a37.617,37.617,0,0,0-37.574,37.574C295.74,308.431,295.743,308.515,295.743,308.6Z" transform="translate(-246.446 6422.973)" fill="none" stroke="#dfdfdf" stroke-width="1"/>
            <path id="Trazado_944" data-name="Trazado 944" d="M278,216.2H259.972c0,.084.007.167.007.255A19.571,19.571,0,0,1,240.43,236v18.025A37.617,37.617,0,0,0,278,216.455C278,216.367,278,216.284,278,216.2Z" transform="translate(-210.43 6458.506)" fill="none" stroke="#dfdfdf" stroke-width="1"/>
          </g>
          <g id="Grupo_3363" data-name="Grupo 3363" transform="translate(344 -1098.707)">
            <path id="Trazado_945" data-name="Trazado 945" d="M295.743,308.6h18.028c0-.084-.007-.167-.007-.255a19.571,19.571,0,0,1,19.549-19.549V270.77a37.617,37.617,0,0,0-37.574,37.574C295.74,308.431,295.743,308.515,295.743,308.6Z" transform="translate(-246.446 6422.973)" fill="none" stroke="#dfdfdf" stroke-width="1"/>
            <path id="Trazado_946" data-name="Trazado 946" d="M278,216.2H259.972c0,.084.007.167.007.255A19.571,19.571,0,0,1,240.43,236v18.025A37.617,37.617,0,0,0,278,216.455C278,216.367,278,216.284,278,216.2Z" transform="translate(-210.43 6458.506)" fill="none" stroke="#dfdfdf" stroke-width="1"/>
          </g>
        </g>
        <g id="Grupo_3385" data-name="Grupo 3385" transform="translate(0 537)">
          <g id="Grupo_3365" data-name="Grupo 3365" transform="translate(1826 -1187.707)">
            <path id="Trazado_947" data-name="Trazado 947" d="M295.743,308.6h18.028c0-.084-.007-.167-.007-.255a19.571,19.571,0,0,1,19.549-19.549V270.77a37.617,37.617,0,0,0-37.574,37.574C295.74,308.431,295.743,308.515,295.743,308.6Z" transform="translate(-246.446 6422.973)" fill="none" stroke="#dfdfdf" stroke-width="1"/>
            <path id="Trazado_948" data-name="Trazado 948" d="M278,216.2H259.972c0,.084.007.167.007.255A19.571,19.571,0,0,1,240.43,236v18.025A37.617,37.617,0,0,0,278,216.455C278,216.367,278,216.284,278,216.2Z" transform="translate(-210.43 6458.506)" fill="none" stroke="#dfdfdf" stroke-width="1"/>
          </g>
          <g id="Grupo_3366" data-name="Grupo 3366" transform="translate(1748 -1098.707)">
            <path id="Trazado_949" data-name="Trazado 949" d="M295.743,308.6h18.028c0-.084-.007-.167-.007-.255a19.571,19.571,0,0,1,19.549-19.549V270.77a37.617,37.617,0,0,0-37.574,37.574C295.74,308.431,295.743,308.515,295.743,308.6Z" transform="translate(-246.446 6422.973)" fill="none" stroke="#dfdfdf" stroke-width="1"/>
            <path id="Trazado_950" data-name="Trazado 950" d="M278,216.2H259.972c0,.084.007.167.007.255A19.571,19.571,0,0,1,240.43,236v18.025A37.617,37.617,0,0,0,278,216.455C278,216.367,278,216.284,278,216.2Z" transform="translate(-210.43 6458.506)" fill="none" stroke="#dfdfdf" stroke-width="1"/>
          </g>
          <g id="Grupo_3367" data-name="Grupo 3367" transform="translate(1670 -1187.707)">
            <path id="Trazado_951" data-name="Trazado 951" d="M295.743,308.6h18.028c0-.084-.007-.167-.007-.255a19.571,19.571,0,0,1,19.549-19.549V270.77a37.617,37.617,0,0,0-37.574,37.574C295.74,308.431,295.743,308.515,295.743,308.6Z" transform="translate(-246.446 6422.973)" fill="none" stroke="#dfdfdf" stroke-width="1"/>
            <path id="Trazado_952" data-name="Trazado 952" d="M278,216.2H259.972c0,.084.007.167.007.255A19.571,19.571,0,0,1,240.43,236v18.025A37.617,37.617,0,0,0,278,216.455C278,216.367,278,216.284,278,216.2Z" transform="translate(-210.43 6458.506)" fill="none" stroke="#dfdfdf" stroke-width="1"/>
          </g>
          <g id="Grupo_3368" data-name="Grupo 3368" transform="translate(1592 -1098.707)">
            <path id="Trazado_953" data-name="Trazado 953" d="M295.743,308.6h18.028c0-.084-.007-.167-.007-.255a19.571,19.571,0,0,1,19.549-19.549V270.77a37.617,37.617,0,0,0-37.574,37.574C295.74,308.431,295.743,308.515,295.743,308.6Z" transform="translate(-246.446 6422.973)" fill="none" stroke="#dfdfdf" stroke-width="1"/>
            <path id="Trazado_954" data-name="Trazado 954" d="M278,216.2H259.972c0,.084.007.167.007.255A19.571,19.571,0,0,1,240.43,236v18.025A37.617,37.617,0,0,0,278,216.455C278,216.367,278,216.284,278,216.2Z" transform="translate(-210.43 6458.506)" fill="none" stroke="#dfdfdf" stroke-width="1"/>
          </g>
          <g id="Grupo_3369" data-name="Grupo 3369" transform="translate(1514 -1187.707)">
            <path id="Trazado_955" data-name="Trazado 955" d="M295.743,308.6h18.028c0-.084-.007-.167-.007-.255a19.571,19.571,0,0,1,19.549-19.549V270.77a37.617,37.617,0,0,0-37.574,37.574C295.74,308.431,295.743,308.515,295.743,308.6Z" transform="translate(-246.446 6422.973)" fill="none" stroke="#dfdfdf" stroke-width="1"/>
            <path id="Trazado_956" data-name="Trazado 956" d="M278,216.2H259.972c0,.084.007.167.007.255A19.571,19.571,0,0,1,240.43,236v18.025A37.617,37.617,0,0,0,278,216.455C278,216.367,278,216.284,278,216.2Z" transform="translate(-210.43 6458.506)" fill="none" stroke="#dfdfdf" stroke-width="1"/>
          </g>
          <g id="Grupo_3370" data-name="Grupo 3370" transform="translate(1436 -1098.707)">
            <path id="Trazado_957" data-name="Trazado 957" d="M295.743,308.6h18.028c0-.084-.007-.167-.007-.255a19.571,19.571,0,0,1,19.549-19.549V270.77a37.617,37.617,0,0,0-37.574,37.574C295.74,308.431,295.743,308.515,295.743,308.6Z" transform="translate(-246.446 6422.973)" fill="none" stroke="#dfdfdf" stroke-width="1"/>
            <path id="Trazado_958" data-name="Trazado 958" d="M278,216.2H259.972c0,.084.007.167.007.255A19.571,19.571,0,0,1,240.43,236v18.025A37.617,37.617,0,0,0,278,216.455C278,216.367,278,216.284,278,216.2Z" transform="translate(-210.43 6458.506)" fill="none" stroke="#dfdfdf" stroke-width="1"/>
          </g>
          <g id="Grupo_3371" data-name="Grupo 3371" transform="translate(1358 -1187.707)">
            <path id="Trazado_959" data-name="Trazado 959" d="M295.743,308.6h18.028c0-.084-.007-.167-.007-.255a19.571,19.571,0,0,1,19.549-19.549V270.77a37.617,37.617,0,0,0-37.574,37.574C295.74,308.431,295.743,308.515,295.743,308.6Z" transform="translate(-246.446 6422.973)" fill="none" stroke="#dfdfdf" stroke-width="1"/>
            <path id="Trazado_960" data-name="Trazado 960" d="M278,216.2H259.972c0,.084.007.167.007.255A19.571,19.571,0,0,1,240.43,236v18.025A37.617,37.617,0,0,0,278,216.455C278,216.367,278,216.284,278,216.2Z" transform="translate(-210.43 6458.506)" fill="none" stroke="#dfdfdf" stroke-width="1"/>
          </g>
          <g id="Grupo_3372" data-name="Grupo 3372" transform="translate(1280 -1098.707)">
            <path id="Trazado_961" data-name="Trazado 961" d="M295.743,308.6h18.028c0-.084-.007-.167-.007-.255a19.571,19.571,0,0,1,19.549-19.549V270.77a37.617,37.617,0,0,0-37.574,37.574C295.74,308.431,295.743,308.515,295.743,308.6Z" transform="translate(-246.446 6422.973)" fill="none" stroke="#dfdfdf" stroke-width="1"/>
            <path id="Trazado_962" data-name="Trazado 962" d="M278,216.2H259.972c0,.084.007.167.007.255A19.571,19.571,0,0,1,240.43,236v18.025A37.617,37.617,0,0,0,278,216.455C278,216.367,278,216.284,278,216.2Z" transform="translate(-210.43 6458.506)" fill="none" stroke="#dfdfdf" stroke-width="1"/>
          </g>
          <g id="Grupo_3373" data-name="Grupo 3373" transform="translate(1202 -1187.707)">
            <path id="Trazado_963" data-name="Trazado 963" d="M295.743,308.6h18.028c0-.084-.007-.167-.007-.255a19.571,19.571,0,0,1,19.549-19.549V270.77a37.617,37.617,0,0,0-37.574,37.574C295.74,308.431,295.743,308.515,295.743,308.6Z" transform="translate(-246.446 6422.973)" fill="none" stroke="#dfdfdf" stroke-width="1"/>
            <path id="Trazado_964" data-name="Trazado 964" d="M278,216.2H259.972c0,.084.007.167.007.255A19.571,19.571,0,0,1,240.43,236v18.025A37.617,37.617,0,0,0,278,216.455C278,216.367,278,216.284,278,216.2Z" transform="translate(-210.43 6458.506)" fill="none" stroke="#dfdfdf" stroke-width="1"/>
          </g>
          <g id="Grupo_3374" data-name="Grupo 3374" transform="translate(1124 -1098.707)">
            <path id="Trazado_965" data-name="Trazado 965" d="M295.743,308.6h18.028c0-.084-.007-.167-.007-.255a19.571,19.571,0,0,1,19.549-19.549V270.77a37.617,37.617,0,0,0-37.574,37.574C295.74,308.431,295.743,308.515,295.743,308.6Z" transform="translate(-246.446 6422.973)" fill="none" stroke="#dfdfdf" stroke-width="1"/>
            <path id="Trazado_966" data-name="Trazado 966" d="M278,216.2H259.972c0,.084.007.167.007.255A19.571,19.571,0,0,1,240.43,236v18.025A37.617,37.617,0,0,0,278,216.455C278,216.367,278,216.284,278,216.2Z" transform="translate(-210.43 6458.506)" fill="none" stroke="#dfdfdf" stroke-width="1"/>
          </g>
          <g id="Grupo_3375" data-name="Grupo 3375" transform="translate(1046 -1187.707)">
            <path id="Trazado_967" data-name="Trazado 967" d="M295.743,308.6h18.028c0-.084-.007-.167-.007-.255a19.571,19.571,0,0,1,19.549-19.549V270.77a37.617,37.617,0,0,0-37.574,37.574C295.74,308.431,295.743,308.515,295.743,308.6Z" transform="translate(-246.446 6422.973)" fill="none" stroke="#dfdfdf" stroke-width="1"/>
            <path id="Trazado_968" data-name="Trazado 968" d="M278,216.2H259.972c0,.084.007.167.007.255A19.571,19.571,0,0,1,240.43,236v18.025A37.617,37.617,0,0,0,278,216.455C278,216.367,278,216.284,278,216.2Z" transform="translate(-210.43 6458.506)" fill="none" stroke="#dfdfdf" stroke-width="1"/>
          </g>
          <g id="Grupo_3376" data-name="Grupo 3376" transform="translate(968 -1098.707)">
            <path id="Trazado_969" data-name="Trazado 969" d="M295.743,308.6h18.028c0-.084-.007-.167-.007-.255a19.571,19.571,0,0,1,19.549-19.549V270.77a37.617,37.617,0,0,0-37.574,37.574C295.74,308.431,295.743,308.515,295.743,308.6Z" transform="translate(-246.446 6422.973)" fill="none" stroke="#dfdfdf" stroke-width="1"/>
            <path id="Trazado_970" data-name="Trazado 970" d="M278,216.2H259.972c0,.084.007.167.007.255A19.571,19.571,0,0,1,240.43,236v18.025A37.617,37.617,0,0,0,278,216.455C278,216.367,278,216.284,278,216.2Z" transform="translate(-210.43 6458.506)" fill="none" stroke="#dfdfdf" stroke-width="1"/>
          </g>
          <g id="Grupo_3377" data-name="Grupo 3377" transform="translate(890 -1187.707)">
            <path id="Trazado_971" data-name="Trazado 971" d="M295.743,308.6h18.028c0-.084-.007-.167-.007-.255a19.571,19.571,0,0,1,19.549-19.549V270.77a37.617,37.617,0,0,0-37.574,37.574C295.74,308.431,295.743,308.515,295.743,308.6Z" transform="translate(-246.446 6422.973)" fill="none" stroke="#dfdfdf" stroke-width="1"/>
            <path id="Trazado_972" data-name="Trazado 972" d="M278,216.2H259.972c0,.084.007.167.007.255A19.571,19.571,0,0,1,240.43,236v18.025A37.617,37.617,0,0,0,278,216.455C278,216.367,278,216.284,278,216.2Z" transform="translate(-210.43 6458.506)" fill="none" stroke="#dfdfdf" stroke-width="1"/>
          </g>
          <g id="Grupo_3378" data-name="Grupo 3378" transform="translate(812 -1098.707)">
            <path id="Trazado_973" data-name="Trazado 973" d="M295.743,308.6h18.028c0-.084-.007-.167-.007-.255a19.571,19.571,0,0,1,19.549-19.549V270.77a37.617,37.617,0,0,0-37.574,37.574C295.74,308.431,295.743,308.515,295.743,308.6Z" transform="translate(-246.446 6422.973)" fill="none" stroke="#dfdfdf" stroke-width="1"/>
            <path id="Trazado_974" data-name="Trazado 974" d="M278,216.2H259.972c0,.084.007.167.007.255A19.571,19.571,0,0,1,240.43,236v18.025A37.617,37.617,0,0,0,278,216.455C278,216.367,278,216.284,278,216.2Z" transform="translate(-210.43 6458.506)" fill="none" stroke="#dfdfdf" stroke-width="1"/>
          </g>
          <g id="Grupo_3379" data-name="Grupo 3379" transform="translate(734 -1187.707)">
            <path id="Trazado_975" data-name="Trazado 975" d="M295.743,308.6h18.028c0-.084-.007-.167-.007-.255a19.571,19.571,0,0,1,19.549-19.549V270.77a37.617,37.617,0,0,0-37.574,37.574C295.74,308.431,295.743,308.515,295.743,308.6Z" transform="translate(-246.446 6422.973)" fill="none" stroke="#dfdfdf" stroke-width="1"/>
            <path id="Trazado_976" data-name="Trazado 976" d="M278,216.2H259.972c0,.084.007.167.007.255A19.571,19.571,0,0,1,240.43,236v18.025A37.617,37.617,0,0,0,278,216.455C278,216.367,278,216.284,278,216.2Z" transform="translate(-210.43 6458.506)" fill="none" stroke="#dfdfdf" stroke-width="1"/>
          </g>
          <g id="Grupo_3380" data-name="Grupo 3380" transform="translate(656 -1098.707)">
            <path id="Trazado_977" data-name="Trazado 977" d="M295.743,308.6h18.028c0-.084-.007-.167-.007-.255a19.571,19.571,0,0,1,19.549-19.549V270.77a37.617,37.617,0,0,0-37.574,37.574C295.74,308.431,295.743,308.515,295.743,308.6Z" transform="translate(-246.446 6422.973)" fill="none" stroke="#dfdfdf" stroke-width="1"/>
            <path id="Trazado_978" data-name="Trazado 978" d="M278,216.2H259.972c0,.084.007.167.007.255A19.571,19.571,0,0,1,240.43,236v18.025A37.617,37.617,0,0,0,278,216.455C278,216.367,278,216.284,278,216.2Z" transform="translate(-210.43 6458.506)" fill="none" stroke="#dfdfdf" stroke-width="1"/>
          </g>
          <g id="Grupo_3381" data-name="Grupo 3381" transform="translate(578 -1187.707)">
            <path id="Trazado_979" data-name="Trazado 979" d="M295.743,308.6h18.028c0-.084-.007-.167-.007-.255a19.571,19.571,0,0,1,19.549-19.549V270.77a37.617,37.617,0,0,0-37.574,37.574C295.74,308.431,295.743,308.515,295.743,308.6Z" transform="translate(-246.446 6422.973)" fill="none" stroke="#dfdfdf" stroke-width="1"/>
            <path id="Trazado_980" data-name="Trazado 980" d="M278,216.2H259.972c0,.084.007.167.007.255A19.571,19.571,0,0,1,240.43,236v18.025A37.617,37.617,0,0,0,278,216.455C278,216.367,278,216.284,278,216.2Z" transform="translate(-210.43 6458.506)" fill="none" stroke="#dfdfdf" stroke-width="1"/>
          </g>
          <g id="Grupo_3382" data-name="Grupo 3382" transform="translate(500 -1098.707)">
            <path id="Trazado_981" data-name="Trazado 981" d="M295.743,308.6h18.028c0-.084-.007-.167-.007-.255a19.571,19.571,0,0,1,19.549-19.549V270.77a37.617,37.617,0,0,0-37.574,37.574C295.74,308.431,295.743,308.515,295.743,308.6Z" transform="translate(-246.446 6422.973)" fill="none" stroke="#dfdfdf" stroke-width="1"/>
            <path id="Trazado_982" data-name="Trazado 982" d="M278,216.2H259.972c0,.084.007.167.007.255A19.571,19.571,0,0,1,240.43,236v18.025A37.617,37.617,0,0,0,278,216.455C278,216.367,278,216.284,278,216.2Z" transform="translate(-210.43 6458.506)" fill="none" stroke="#dfdfdf" stroke-width="1"/>
          </g>
          <g id="Grupo_3383" data-name="Grupo 3383" transform="translate(422 -1187.707)">
            <path id="Trazado_983" data-name="Trazado 983" d="M295.743,308.6h18.028c0-.084-.007-.167-.007-.255a19.571,19.571,0,0,1,19.549-19.549V270.77a37.617,37.617,0,0,0-37.574,37.574C295.74,308.431,295.743,308.515,295.743,308.6Z" transform="translate(-246.446 6422.973)" fill="none" stroke="#dfdfdf" stroke-width="1"/>
            <path id="Trazado_984" data-name="Trazado 984" d="M278,216.2H259.972c0,.084.007.167.007.255A19.571,19.571,0,0,1,240.43,236v18.025A37.617,37.617,0,0,0,278,216.455C278,216.367,278,216.284,278,216.2Z" transform="translate(-210.43 6458.506)" fill="none" stroke="#dfdfdf" stroke-width="1"/>
          </g>
          <g id="Grupo_3384" data-name="Grupo 3384" transform="translate(344 -1098.707)">
            <path id="Trazado_985" data-name="Trazado 985" d="M295.743,308.6h18.028c0-.084-.007-.167-.007-.255a19.571,19.571,0,0,1,19.549-19.549V270.77a37.617,37.617,0,0,0-37.574,37.574C295.74,308.431,295.743,308.515,295.743,308.6Z" transform="translate(-246.446 6422.973)" fill="none" stroke="#dfdfdf" stroke-width="1"/>
            <path id="Trazado_986" data-name="Trazado 986" d="M278,216.2H259.972c0,.084.007.167.007.255A19.571,19.571,0,0,1,240.43,236v18.025A37.617,37.617,0,0,0,278,216.455C278,216.367,278,216.284,278,216.2Z" transform="translate(-210.43 6458.506)" fill="none" stroke="#dfdfdf" stroke-width="1"/>
          </g>
        </g>
        <g id="Grupo_3406" data-name="Grupo 3406" transform="translate(0 716)">
          <g id="Grupo_3386" data-name="Grupo 3386" transform="translate(1826 -1187.707)">
            <path id="Trazado_987" data-name="Trazado 987" d="M295.743,308.6h18.028c0-.084-.007-.167-.007-.255a19.571,19.571,0,0,1,19.549-19.549V270.77a37.617,37.617,0,0,0-37.574,37.574C295.74,308.431,295.743,308.515,295.743,308.6Z" transform="translate(-246.446 6422.973)" fill="none" stroke="#dfdfdf" stroke-width="1"/>
            <path id="Trazado_988" data-name="Trazado 988" d="M278,216.2H259.972c0,.084.007.167.007.255A19.571,19.571,0,0,1,240.43,236v18.025A37.617,37.617,0,0,0,278,216.455C278,216.367,278,216.284,278,216.2Z" transform="translate(-210.43 6458.506)" fill="none" stroke="#dfdfdf" stroke-width="1"/>
          </g>
          <g id="Grupo_3387" data-name="Grupo 3387" transform="translate(1748 -1098.707)">
            <path id="Trazado_989" data-name="Trazado 989" d="M295.743,308.6h18.028c0-.084-.007-.167-.007-.255a19.571,19.571,0,0,1,19.549-19.549V270.77a37.617,37.617,0,0,0-37.574,37.574C295.74,308.431,295.743,308.515,295.743,308.6Z" transform="translate(-246.446 6422.973)" fill="none" stroke="#dfdfdf" stroke-width="1"/>
            <path id="Trazado_990" data-name="Trazado 990" d="M278,216.2H259.972c0,.084.007.167.007.255A19.571,19.571,0,0,1,240.43,236v18.025A37.617,37.617,0,0,0,278,216.455C278,216.367,278,216.284,278,216.2Z" transform="translate(-210.43 6458.506)" fill="none" stroke="#dfdfdf" stroke-width="1"/>
          </g>
          <g id="Grupo_3388" data-name="Grupo 3388" transform="translate(1670 -1187.707)">
            <path id="Trazado_991" data-name="Trazado 991" d="M295.743,308.6h18.028c0-.084-.007-.167-.007-.255a19.571,19.571,0,0,1,19.549-19.549V270.77a37.617,37.617,0,0,0-37.574,37.574C295.74,308.431,295.743,308.515,295.743,308.6Z" transform="translate(-246.446 6422.973)" fill="none" stroke="#dfdfdf" stroke-width="1"/>
            <path id="Trazado_992" data-name="Trazado 992" d="M278,216.2H259.972c0,.084.007.167.007.255A19.571,19.571,0,0,1,240.43,236v18.025A37.617,37.617,0,0,0,278,216.455C278,216.367,278,216.284,278,216.2Z" transform="translate(-210.43 6458.506)" fill="none" stroke="#dfdfdf" stroke-width="1"/>
          </g>
          <g id="Grupo_3389" data-name="Grupo 3389" transform="translate(1592 -1098.707)">
            <path id="Trazado_993" data-name="Trazado 993" d="M295.743,308.6h18.028c0-.084-.007-.167-.007-.255a19.571,19.571,0,0,1,19.549-19.549V270.77a37.617,37.617,0,0,0-37.574,37.574C295.74,308.431,295.743,308.515,295.743,308.6Z" transform="translate(-246.446 6422.973)" fill="none" stroke="#dfdfdf" stroke-width="1"/>
            <path id="Trazado_994" data-name="Trazado 994" d="M278,216.2H259.972c0,.084.007.167.007.255A19.571,19.571,0,0,1,240.43,236v18.025A37.617,37.617,0,0,0,278,216.455C278,216.367,278,216.284,278,216.2Z" transform="translate(-210.43 6458.506)" fill="none" stroke="#dfdfdf" stroke-width="1"/>
          </g>
          <g id="Grupo_3390" data-name="Grupo 3390" transform="translate(1514 -1187.707)">
            <path id="Trazado_995" data-name="Trazado 995" d="M295.743,308.6h18.028c0-.084-.007-.167-.007-.255a19.571,19.571,0,0,1,19.549-19.549V270.77a37.617,37.617,0,0,0-37.574,37.574C295.74,308.431,295.743,308.515,295.743,308.6Z" transform="translate(-246.446 6422.973)" fill="none" stroke="#dfdfdf" stroke-width="1"/>
            <path id="Trazado_996" data-name="Trazado 996" d="M278,216.2H259.972c0,.084.007.167.007.255A19.571,19.571,0,0,1,240.43,236v18.025A37.617,37.617,0,0,0,278,216.455C278,216.367,278,216.284,278,216.2Z" transform="translate(-210.43 6458.506)" fill="none" stroke="#dfdfdf" stroke-width="1"/>
          </g>
          <g id="Grupo_3391" data-name="Grupo 3391" transform="translate(1436 -1098.707)">
            <path id="Trazado_997" data-name="Trazado 997" d="M295.743,308.6h18.028c0-.084-.007-.167-.007-.255a19.571,19.571,0,0,1,19.549-19.549V270.77a37.617,37.617,0,0,0-37.574,37.574C295.74,308.431,295.743,308.515,295.743,308.6Z" transform="translate(-246.446 6422.973)" fill="none" stroke="#dfdfdf" stroke-width="1"/>
            <path id="Trazado_998" data-name="Trazado 998" d="M278,216.2H259.972c0,.084.007.167.007.255A19.571,19.571,0,0,1,240.43,236v18.025A37.617,37.617,0,0,0,278,216.455C278,216.367,278,216.284,278,216.2Z" transform="translate(-210.43 6458.506)" fill="none" stroke="#dfdfdf" stroke-width="1"/>
          </g>
          <g id="Grupo_3392" data-name="Grupo 3392" transform="translate(1358 -1187.707)">
            <path id="Trazado_999" data-name="Trazado 999" d="M295.743,308.6h18.028c0-.084-.007-.167-.007-.255a19.571,19.571,0,0,1,19.549-19.549V270.77a37.617,37.617,0,0,0-37.574,37.574C295.74,308.431,295.743,308.515,295.743,308.6Z" transform="translate(-246.446 6422.973)" fill="none" stroke="#dfdfdf" stroke-width="1"/>
            <path id="Trazado_1000" data-name="Trazado 1000" d="M278,216.2H259.972c0,.084.007.167.007.255A19.571,19.571,0,0,1,240.43,236v18.025A37.617,37.617,0,0,0,278,216.455C278,216.367,278,216.284,278,216.2Z" transform="translate(-210.43 6458.506)" fill="none" stroke="#dfdfdf" stroke-width="1"/>
          </g>
          <g id="Grupo_3393" data-name="Grupo 3393" transform="translate(1280 -1098.707)">
            <path id="Trazado_1001" data-name="Trazado 1001" d="M295.743,308.6h18.028c0-.084-.007-.167-.007-.255a19.571,19.571,0,0,1,19.549-19.549V270.77a37.617,37.617,0,0,0-37.574,37.574C295.74,308.431,295.743,308.515,295.743,308.6Z" transform="translate(-246.446 6422.973)" fill="none" stroke="#dfdfdf" stroke-width="1"/>
            <path id="Trazado_1002" data-name="Trazado 1002" d="M278,216.2H259.972c0,.084.007.167.007.255A19.571,19.571,0,0,1,240.43,236v18.025A37.617,37.617,0,0,0,278,216.455C278,216.367,278,216.284,278,216.2Z" transform="translate(-210.43 6458.506)" fill="none" stroke="#dfdfdf" stroke-width="1"/>
          </g>
          <g id="Grupo_3394" data-name="Grupo 3394" transform="translate(1202 -1187.707)">
            <path id="Trazado_1003" data-name="Trazado 1003" d="M295.743,308.6h18.028c0-.084-.007-.167-.007-.255a19.571,19.571,0,0,1,19.549-19.549V270.77a37.617,37.617,0,0,0-37.574,37.574C295.74,308.431,295.743,308.515,295.743,308.6Z" transform="translate(-246.446 6422.973)" fill="none" stroke="#dfdfdf" stroke-width="1"/>
            <path id="Trazado_1004" data-name="Trazado 1004" d="M278,216.2H259.972c0,.084.007.167.007.255A19.571,19.571,0,0,1,240.43,236v18.025A37.617,37.617,0,0,0,278,216.455C278,216.367,278,216.284,278,216.2Z" transform="translate(-210.43 6458.506)" fill="none" stroke="#dfdfdf" stroke-width="1"/>
          </g>
          <g id="Grupo_3395" data-name="Grupo 3395" transform="translate(1124 -1098.707)">
            <path id="Trazado_1005" data-name="Trazado 1005" d="M295.743,308.6h18.028c0-.084-.007-.167-.007-.255a19.571,19.571,0,0,1,19.549-19.549V270.77a37.617,37.617,0,0,0-37.574,37.574C295.74,308.431,295.743,308.515,295.743,308.6Z" transform="translate(-246.446 6422.973)" fill="none" stroke="#dfdfdf" stroke-width="1"/>
            <path id="Trazado_1006" data-name="Trazado 1006" d="M278,216.2H259.972c0,.084.007.167.007.255A19.571,19.571,0,0,1,240.43,236v18.025A37.617,37.617,0,0,0,278,216.455C278,216.367,278,216.284,278,216.2Z" transform="translate(-210.43 6458.506)" fill="none" stroke="#dfdfdf" stroke-width="1"/>
          </g>
          <g id="Grupo_3396" data-name="Grupo 3396" transform="translate(1046 -1187.707)">
            <path id="Trazado_1007" data-name="Trazado 1007" d="M295.743,308.6h18.028c0-.084-.007-.167-.007-.255a19.571,19.571,0,0,1,19.549-19.549V270.77a37.617,37.617,0,0,0-37.574,37.574C295.74,308.431,295.743,308.515,295.743,308.6Z" transform="translate(-246.446 6422.973)" fill="none" stroke="#dfdfdf" stroke-width="1"/>
            <path id="Trazado_1008" data-name="Trazado 1008" d="M278,216.2H259.972c0,.084.007.167.007.255A19.571,19.571,0,0,1,240.43,236v18.025A37.617,37.617,0,0,0,278,216.455C278,216.367,278,216.284,278,216.2Z" transform="translate(-210.43 6458.506)" fill="none" stroke="#dfdfdf" stroke-width="1"/>
          </g>
          <g id="Grupo_3397" data-name="Grupo 3397" transform="translate(968 -1098.707)">
            <path id="Trazado_1009" data-name="Trazado 1009" d="M295.743,308.6h18.028c0-.084-.007-.167-.007-.255a19.571,19.571,0,0,1,19.549-19.549V270.77a37.617,37.617,0,0,0-37.574,37.574C295.74,308.431,295.743,308.515,295.743,308.6Z" transform="translate(-246.446 6422.973)" fill="none" stroke="#dfdfdf" stroke-width="1"/>
            <path id="Trazado_1010" data-name="Trazado 1010" d="M278,216.2H259.972c0,.084.007.167.007.255A19.571,19.571,0,0,1,240.43,236v18.025A37.617,37.617,0,0,0,278,216.455C278,216.367,278,216.284,278,216.2Z" transform="translate(-210.43 6458.506)" fill="none" stroke="#dfdfdf" stroke-width="1"/>
          </g>
          <g id="Grupo_3398" data-name="Grupo 3398" transform="translate(890 -1187.707)">
            <path id="Trazado_1011" data-name="Trazado 1011" d="M295.743,308.6h18.028c0-.084-.007-.167-.007-.255a19.571,19.571,0,0,1,19.549-19.549V270.77a37.617,37.617,0,0,0-37.574,37.574C295.74,308.431,295.743,308.515,295.743,308.6Z" transform="translate(-246.446 6422.973)" fill="none" stroke="#dfdfdf" stroke-width="1"/>
            <path id="Trazado_1012" data-name="Trazado 1012" d="M278,216.2H259.972c0,.084.007.167.007.255A19.571,19.571,0,0,1,240.43,236v18.025A37.617,37.617,0,0,0,278,216.455C278,216.367,278,216.284,278,216.2Z" transform="translate(-210.43 6458.506)" fill="none" stroke="#dfdfdf" stroke-width="1"/>
          </g>
          <g id="Grupo_3399" data-name="Grupo 3399" transform="translate(812 -1098.707)">
            <path id="Trazado_1013" data-name="Trazado 1013" d="M295.743,308.6h18.028c0-.084-.007-.167-.007-.255a19.571,19.571,0,0,1,19.549-19.549V270.77a37.617,37.617,0,0,0-37.574,37.574C295.74,308.431,295.743,308.515,295.743,308.6Z" transform="translate(-246.446 6422.973)" fill="none" stroke="#dfdfdf" stroke-width="1"/>
            <path id="Trazado_1014" data-name="Trazado 1014" d="M278,216.2H259.972c0,.084.007.167.007.255A19.571,19.571,0,0,1,240.43,236v18.025A37.617,37.617,0,0,0,278,216.455C278,216.367,278,216.284,278,216.2Z" transform="translate(-210.43 6458.506)" fill="none" stroke="#dfdfdf" stroke-width="1"/>
          </g>
          <g id="Grupo_3400" data-name="Grupo 3400" transform="translate(734 -1187.707)">
            <path id="Trazado_1015" data-name="Trazado 1015" d="M295.743,308.6h18.028c0-.084-.007-.167-.007-.255a19.571,19.571,0,0,1,19.549-19.549V270.77a37.617,37.617,0,0,0-37.574,37.574C295.74,308.431,295.743,308.515,295.743,308.6Z" transform="translate(-246.446 6422.973)" fill="none" stroke="#dfdfdf" stroke-width="1"/>
            <path id="Trazado_1016" data-name="Trazado 1016" d="M278,216.2H259.972c0,.084.007.167.007.255A19.571,19.571,0,0,1,240.43,236v18.025A37.617,37.617,0,0,0,278,216.455C278,216.367,278,216.284,278,216.2Z" transform="translate(-210.43 6458.506)" fill="none" stroke="#dfdfdf" stroke-width="1"/>
          </g>
          <g id="Grupo_3401" data-name="Grupo 3401" transform="translate(656 -1098.707)">
            <path id="Trazado_1017" data-name="Trazado 1017" d="M295.743,308.6h18.028c0-.084-.007-.167-.007-.255a19.571,19.571,0,0,1,19.549-19.549V270.77a37.617,37.617,0,0,0-37.574,37.574C295.74,308.431,295.743,308.515,295.743,308.6Z" transform="translate(-246.446 6422.973)" fill="none" stroke="#dfdfdf" stroke-width="1"/>
            <path id="Trazado_1018" data-name="Trazado 1018" d="M278,216.2H259.972c0,.084.007.167.007.255A19.571,19.571,0,0,1,240.43,236v18.025A37.617,37.617,0,0,0,278,216.455C278,216.367,278,216.284,278,216.2Z" transform="translate(-210.43 6458.506)" fill="none" stroke="#dfdfdf" stroke-width="1"/>
          </g>
          <g id="Grupo_3402" data-name="Grupo 3402" transform="translate(578 -1187.707)">
            <path id="Trazado_1019" data-name="Trazado 1019" d="M295.743,308.6h18.028c0-.084-.007-.167-.007-.255a19.571,19.571,0,0,1,19.549-19.549V270.77a37.617,37.617,0,0,0-37.574,37.574C295.74,308.431,295.743,308.515,295.743,308.6Z" transform="translate(-246.446 6422.973)" fill="none" stroke="#dfdfdf" stroke-width="1"/>
            <path id="Trazado_1020" data-name="Trazado 1020" d="M278,216.2H259.972c0,.084.007.167.007.255A19.571,19.571,0,0,1,240.43,236v18.025A37.617,37.617,0,0,0,278,216.455C278,216.367,278,216.284,278,216.2Z" transform="translate(-210.43 6458.506)" fill="none" stroke="#dfdfdf" stroke-width="1"/>
          </g>
          <g id="Grupo_3403" data-name="Grupo 3403" transform="translate(500 -1098.707)">
            <path id="Trazado_1021" data-name="Trazado 1021" d="M295.743,308.6h18.028c0-.084-.007-.167-.007-.255a19.571,19.571,0,0,1,19.549-19.549V270.77a37.617,37.617,0,0,0-37.574,37.574C295.74,308.431,295.743,308.515,295.743,308.6Z" transform="translate(-246.446 6422.973)" fill="none" stroke="#dfdfdf" stroke-width="1"/>
            <path id="Trazado_1022" data-name="Trazado 1022" d="M278,216.2H259.972c0,.084.007.167.007.255A19.571,19.571,0,0,1,240.43,236v18.025A37.617,37.617,0,0,0,278,216.455C278,216.367,278,216.284,278,216.2Z" transform="translate(-210.43 6458.506)" fill="none" stroke="#dfdfdf" stroke-width="1"/>
          </g>
          <g id="Grupo_3404" data-name="Grupo 3404" transform="translate(422 -1187.707)">
            <path id="Trazado_1023" data-name="Trazado 1023" d="M295.743,308.6h18.028c0-.084-.007-.167-.007-.255a19.571,19.571,0,0,1,19.549-19.549V270.77a37.617,37.617,0,0,0-37.574,37.574C295.74,308.431,295.743,308.515,295.743,308.6Z" transform="translate(-246.446 6422.973)" fill="none" stroke="#dfdfdf" stroke-width="1"/>
            <path id="Trazado_1024" data-name="Trazado 1024" d="M278,216.2H259.972c0,.084.007.167.007.255A19.571,19.571,0,0,1,240.43,236v18.025A37.617,37.617,0,0,0,278,216.455C278,216.367,278,216.284,278,216.2Z" transform="translate(-210.43 6458.506)" fill="none" stroke="#dfdfdf" stroke-width="1"/>
          </g>
          <g id="Grupo_3405" data-name="Grupo 3405" transform="translate(344 -1098.707)">
            <path id="Trazado_1025" data-name="Trazado 1025" d="M295.743,308.6h18.028c0-.084-.007-.167-.007-.255a19.571,19.571,0,0,1,19.549-19.549V270.77a37.617,37.617,0,0,0-37.574,37.574C295.74,308.431,295.743,308.515,295.743,308.6Z" transform="translate(-246.446 6422.973)" fill="none" stroke="#dfdfdf" stroke-width="1"/>
            <path id="Trazado_1026" data-name="Trazado 1026" d="M278,216.2H259.972c0,.084.007.167.007.255A19.571,19.571,0,0,1,240.43,236v18.025A37.617,37.617,0,0,0,278,216.455C278,216.367,278,216.284,278,216.2Z" transform="translate(-210.43 6458.506)" fill="none" stroke="#dfdfdf" stroke-width="1"/>
          </g>
        </g>
      </g>
    </g>
  </g>
</svg>
