<svg xmlns="http://www.w3.org/2000/svg" width="10.075" height="17.168" viewBox="0 0 10.075 17.168">
  <g id="ic_temperature" transform="translate(-193.838 -591.334)">
    <path id="Trazado_670" data-name="Trazado 670" d="M-105.2-544.923a4.92,4.92,0,0,1,.847.3,2.174,2.174,0,0,1,1.127,2.027q0,3.4,0,6.8a.338.338,0,0,0,.16.307,4.01,4.01,0,0,1,1.682,4.01,4.005,4.005,0,0,1-3.184,3.366,3.992,3.992,0,0,1-3.823-1.152,4.094,4.094,0,0,1-.683-4.819,3.919,3.919,0,0,1,1.25-1.4.326.326,0,0,0,.162-.307q-.008-3.4,0-6.8a2.178,2.178,0,0,1,1.141-2.036,4.861,4.861,0,0,1,.833-.292Zm1.354,5.848q0-1.652,0-3.3a3.964,3.964,0,0,0-.029-.56,1.5,1.5,0,0,0-.942-1.221,1.5,1.5,0,0,0-1.561.188,1.588,1.588,0,0,0-.644,1.361c0,2.357,0,4.714,0,7.07a.5.5,0,0,1-.23.44,5.048,5.048,0,0,0-.832.718,3.308,3.308,0,0,0-.591,3.536,3.449,3.449,0,0,0,4.363,2.02,3.487,3.487,0,0,0,2.361-3.355,3.426,3.426,0,0,0-1.658-2.913.473.473,0,0,1-.244-.446C-103.838-536.718-103.842-537.9-103.842-539.075Z" transform="translate(303.627 1136.382)" fill="#00065a" stroke="#00065a" stroke-width="0.25"/>
    <path id="Trazado_671" data-name="Trazado 671" d="M36.758-372.568c.336,0,.672-.006,1.007,0a.292.292,0,0,1,.292.28.3.3,0,0,1-.257.329.545.545,0,0,1-.114.015c-.617,0-1.233,0-1.85,0a.324.324,0,0,1-.356-.233.286.286,0,0,1,.148-.35.57.57,0,0,1,.238-.045c.3-.005.595,0,.892,0Z" transform="translate(165.729 972.512)" fill="#00065a" stroke="#00065a" stroke-width="0.25"/>
    <path id="Trazado_672" data-name="Trazado 672" d="M36.775-500.788c.308,0,.617,0,.925,0,.234,0,.367.118.368.309s-.134.318-.363.319q-.933.006-1.866,0c-.229,0-.362-.13-.36-.322s.135-.3.371-.306C36.158-500.791,36.466-500.788,36.775-500.788Z" transform="translate(165.719 1094.42)" fill="#00065a" stroke="#00065a" stroke-width="0.25"/>
    <path id="Trazado_673" data-name="Trazado 673" d="M36.766-436.142c-.308,0-.617,0-.925,0-.242,0-.379-.121-.376-.319s.141-.308.373-.309q.925,0,1.85,0c.23,0,.367.124.368.314s-.136.312-.365.314C37.383-436.14,37.074-436.142,36.766-436.142Z" transform="translate(165.731 1033.553)" fill="#00065a" stroke="#00065a" stroke-width="0.25"/>
    <path id="Trazado_674" data-name="Trazado 674" d="M44.371-468.258c-.181,0-.363.006-.544,0a.308.308,0,0,1-.337-.306.3.3,0,0,1,.326-.319q.56-.016,1.121,0a.311.311,0,0,1,.331.316.311.311,0,0,1-.336.309C44.745-468.252,44.558-468.258,44.371-468.258Z" transform="translate(158.103 1064.092)" fill="#00065a" stroke="#00065a" stroke-width="0.25"/>
    <path id="Trazado_675" data-name="Trazado 675" d="M44.369-404.643c.181,0,.363,0,.544,0a.316.316,0,0,1,.339.307.313.313,0,0,1-.328.319q-.56.011-1.121,0a.31.31,0,0,1-.33-.317.311.311,0,0,1,.335-.31C44-404.647,44.182-404.643,44.369-404.643Z" transform="translate(158.118 1003.005)" fill="#00065a" stroke="#00065a" stroke-width="0.25"/>
    <path id="Trazado_676" data-name="Trazado 676" d="M-67.475-429.443a2.189,2.189,0,0,1,1.859,2.389,2.174,2.174,0,0,1-2.2,1.957,2.186,2.186,0,0,1-2.14-1.917,2.194,2.194,0,0,1,1.852-2.425v-.189q0-2.222,0-4.444a1.006,1.006,0,0,1,.019-.212.305.305,0,0,1,.306-.248.305.305,0,0,1,.3.277,1.6,1.6,0,0,1,.007.2q0,2.205,0,4.411Zm-1.86,2.17a1.562,1.562,0,0,0,1.549,1.542,1.566,1.566,0,0,0,1.547-1.547,1.564,1.564,0,0,0-1.558-1.55A1.563,1.563,0,0,0-69.335-427.273Z" transform="translate(265.982 1031.422)" fill="#00065a" stroke="#00065a" stroke-width="0.25"/>
  </g>
</svg>
