<svg xmlns="http://www.w3.org/2000/svg" width="14.847" height="15.086" viewBox="0 0 14.847 15.086">
  <g id="ic_weight" transform="translate(-191.341 -533.029)">
    <path id="Trazado_677" data-name="Trazado 677" d="M-500.854-756.661c.1.024.195.046.291.072a2.163,2.163,0,0,1,1.09,3.5l-.118.139h3.135a.92.92,0,0,1,1,.827q.523,2.942,1.04,5.885c.2,1.111.394,2.223.587,3.335a.923.923,0,0,1-.895,1.08h-.014q-6.375,0-12.749,0a.916.916,0,0,1-.906-1.093q.517-2.957,1.042-5.914.293-1.66.586-3.32a.919.919,0,0,1,.951-.8q1.5,0,3,0h.178c-.061-.072-.105-.121-.145-.173a2.087,2.087,0,0,1-.353-2.124,2.1,2.1,0,0,1,1.669-1.383.927.927,0,0,0,.094-.029Zm-.273,14.22h6.287c.322,0,.442-.137.387-.453-.176-1.007-.355-2.013-.533-3.02q-.529-3-1.057-6c-.064-.365-.128-.424-.5-.424q-2.31,0-4.62.008c-1.545,0-3.09-.005-4.635-.007a.314.314,0,0,0-.357.3q-.174.968-.344,1.937-.441,2.5-.882,5-.2,1.133-.4,2.265a.27.27,0,0,0,.093.3.62.62,0,0,0,.308.088Q-504.255-742.437-501.126-742.441Zm-1.53-12.055a1.544,1.544,0,0,0,1.547,1.543,1.545,1.545,0,0,0,1.536-1.54,1.547,1.547,0,0,0-1.54-1.552A1.548,1.548,0,0,0-502.656-754.5Z" transform="translate(699.878 1289.815)" fill="#00065a" stroke="#00065a" stroke-width="0.25"/>
    <path id="Trazado_678" data-name="Trazado 678" d="M-301.7-577.925h-.766c-.063,0-.126,0-.188,0a.3.3,0,0,1-.292-.3.3.3,0,0,1,.285-.308q.644-.011,1.289,0a.273.273,0,0,1,.271.257,5.07,5.07,0,0,1-.045,1.022,1.512,1.512,0,0,1-1.672,1.178,1.545,1.545,0,0,1-1.364-1.533q-.02-.927,0-1.854A1.548,1.548,0,0,1-302.855-581a1.537,1.537,0,0,1,1.674,1.045,1.87,1.87,0,0,1,.08.453.3.3,0,0,1-.3.341.311.311,0,0,1-.315-.31.937.937,0,0,0-.779-.914.911.911,0,0,0-1.067.828c-.019.675-.016,1.352,0,2.028a.907.907,0,0,0,.851.839.924.924,0,0,0,.97-.738A4.851,4.851,0,0,0-301.7-577.925Z" transform="translate(503.57 1120.967)" fill="#00065a" stroke="#00065a" stroke-width="0.25"/>
    <path id="Trazado_679" data-name="Trazado 679" d="M-415.136-579.152l.159-.135q.883-.772,1.765-1.546a.329.329,0,0,1,.358-.084.309.309,0,0,1,.068.533c-.262.236-.53.465-.8.7l-1.308,1.144c-.025.022-.048.045-.082.078l.824.735q.665.593,1.33,1.185c.095.084.185.183.146.308a.489.489,0,0,1-.189.249.271.271,0,0,1-.332-.063l-.919-.819-1.026-.913c0,.085,0,.133,0,.182,0,.434,0,.869,0,1.3a.289.289,0,0,1-.294.3.3.3,0,0,1-.317-.29c0-.024,0-.048,0-.072q0-2.107,0-4.215c0-.217.111-.351.293-.358a.3.3,0,0,1,.321.328c0,.43,0,.859,0,1.289Z" transform="translate(610.806 1120.896)" fill="#00065a" stroke="#00065a" stroke-width="0.25"/>
  </g>
</svg>
